{"glyphs":{"0":{"ha":703,"x_min":0,"x_max":619,"o":"m 175 918 l 444 918 l 619 782 l 619 135 l 444 0 l 175 0 l 0 135 l 0 782 l 0 782 l 175 918 m 203 167 l 203 167 l 203 751 l 418 751 l 418 167 l 203 167 m 33 765 l 33 765 l 33 151 l 188 33 l 432 33 l 586 151 l 586 765 l 432 885 l 188 885 l 33 765 m 383 200 l 383 717 l 236 717 l 236 200 l 236 200 l 383 200 z "},"1":{"ha":375,"x_min":-14,"x_max":292,"o":"m -14 699 l 40 918 l 292 918 l 292 0 l 57 0 l 57 699 l 57 699 l -14 699 m 258 33 l 258 33 l 258 885 l 67 885 l 29 733 l 90 733 l 90 33 l 258 33 z "},"2":{"ha":667,"x_min":0,"x_max":583,"o":"m 236 306 l 236 200 l 583 200 l 525 0 l 0 0 l 0 371 l 175 507 l 336 507 l 336 717 l 0 717 l 50 918 l 396 918 l 572 782 l 572 442 l 396 306 l 236 306 l 236 306 l 236 306 m 76 885 l 43 751 l 369 751 l 369 474 l 188 474 l 33 354 l 33 33 l 500 33 l 538 167 l 203 167 l 203 339 l 385 339 l 538 458 l 538 765 l 385 885 l 76 885 l 76 885 l 76 885 z "},"3":{"ha":639,"x_min":-14,"x_max":556,"o":"m 313 717 l -6 717 l 44 918 l 374 918 l 549 782 l 549 538 l 499 503 l 556 463 l 556 135 l 379 0 l 44 0 l -14 200 l 300 200 l 319 215 l 319 397 l 153 397 l 153 597 l 313 597 l 313 717 l 313 717 l 313 717 m 346 751 l 346 564 l 186 564 l 186 431 l 353 431 l 353 197 l 311 167 l 31 167 l 69 33 l 368 33 l 522 151 l 522 446 l 440 503 l 515 556 l 515 765 l 361 885 l 71 885 l 38 751 l 346 751 l 346 751 l 346 751 z "},"4":{"ha":706,"x_min":-14,"x_max":622,"o":"m 336 389 l 336 657 l 235 389 l 235 389 l 336 389 m 185 356 l 185 356 l 386 885 l 222 885 l 24 356 l 104 229 l 369 229 l 369 33 l 538 33 l 538 229 l 588 229 l 588 356 l 538 356 l 538 751 l 369 751 l 369 356 l 185 356 m 571 785 l 571 389 l 622 389 l 622 196 l 571 196 l 571 0 l 336 0 l 336 196 l 86 196 l -14 351 l 200 918 l 435 918 l 385 785 l 385 785 l 571 785 z "},"5":{"ha":657,"x_min":-14,"x_max":574,"o":"m 339 215 l 339 425 l 22 425 l 22 918 l 517 918 l 567 717 l 258 717 l 258 625 l 399 625 l 574 490 l 574 135 l 399 0 l 44 0 l -14 200 l 319 200 l 319 200 l 339 215 m 69 33 l 69 33 l 388 33 l 540 151 l 540 474 l 388 592 l 225 592 l 225 751 l 524 751 l 490 885 l 57 885 l 57 458 l 372 458 l 372 197 l 331 167 l 31 167 l 69 33 z "},"6":{"ha":667,"x_min":0,"x_max":583,"o":"m 236 613 l 407 613 l 583 476 l 583 135 l 407 0 l 175 0 l 0 135 l 0 782 l 175 918 l 525 918 l 575 717 l 236 717 l 236 717 l 236 613 m 203 167 l 203 167 l 203 444 l 381 444 l 381 167 l 203 167 m 33 765 l 33 765 l 33 151 l 188 33 l 396 33 l 549 151 l 549 460 l 396 578 l 203 578 l 203 751 l 532 751 l 499 885 l 188 885 l 33 765 m 347 200 l 347 411 l 236 411 l 236 200 l 236 200 l 347 200 z "},"7":{"ha":717,"x_min":0,"x_max":647,"o":"m 0 717 l 50 918 l 647 918 l 319 0 l 79 0 l 336 717 l 336 717 l 0 717 m 383 751 l 383 751 l 128 33 l 296 33 l 600 885 l 76 885 l 43 751 l 383 751 z "},"8":{"ha":683,"x_min":0,"x_max":600,"o":"m 7 504 l 7 782 l 182 918 l 417 918 l 593 782 l 593 504 l 543 469 l 600 429 l 600 135 l 424 0 l 175 0 l 0 135 l 0 429 l 57 469 l 57 469 l 7 504 m 397 167 l 397 167 l 203 167 l 203 397 l 397 397 l 397 167 m 33 411 l 33 411 l 33 151 l 188 33 l 413 33 l 565 151 l 565 411 l 485 469 l 560 522 l 560 765 l 406 885 l 194 885 l 40 765 l 40 522 l 115 469 l 33 411 m 208 531 l 208 531 l 208 751 l 390 751 l 390 531 l 208 531 m 364 363 l 236 363 l 236 200 l 364 200 l 364 200 l 364 363 m 357 564 l 357 717 l 243 717 l 243 564 l 243 564 l 357 564 z "},"9":{"ha":676,"x_min":0,"x_max":593,"o":"m 357 215 l 357 313 l 175 313 l 0 449 l 0 782 l 175 918 l 417 918 l 593 782 l 593 135 l 417 0 l 58 0 l 0 200 l 338 200 l 338 200 l 357 215 m 390 751 l 390 751 l 390 479 l 203 479 l 203 751 l 390 751 m 560 151 l 560 151 l 560 765 l 406 885 l 188 885 l 33 765 l 33 465 l 188 346 l 390 346 l 390 197 l 349 167 l 44 167 l 83 33 l 406 33 l 560 151 m 236 717 l 236 514 l 357 514 l 357 717 l 357 717 l 236 717 z "}," ":{"ha":278,"x_min":0,"x_max":0,"o":""}," ":{"ha":278,"x_min":0,"x_max":0,"o":""},"$":{"ha":658,"x_min":0,"x_max":589,"o":"m 247 561 l 414 561 l 589 425 l 589 135 l 414 0 l 376 0 l 376 -81 l 225 -81 l 225 0 l 58 0 l 0 200 l 354 200 l 354 360 l 186 360 l 11 496 l 11 782 l 186 918 l 225 918 l 225 999 l 376 999 l 376 918 l 517 918 l 567 717 l 247 717 l 247 717 l 247 561 m 490 885 l 490 885 l 342 885 l 342 964 l 258 964 l 258 885 l 199 885 l 44 765 l 44 513 l 199 393 l 388 393 l 388 167 l 44 167 l 83 33 l 258 33 l 258 -47 l 342 -47 l 342 33 l 403 33 l 556 151 l 556 408 l 403 526 l 214 526 l 214 751 l 524 751 l 490 885 z "},"%":{"ha":807,"x_min":0,"x_max":738,"o":"m 235 447 l 94 447 l 0 521 l 0 844 l 94 918 l 235 918 l 329 844 l 329 557 l 432 918 l 567 918 l 421 408 l 503 471 l 642 471 l 738 397 l 738 74 l 642 0 l 503 0 l 407 74 l 407 361 l 304 0 l 171 0 l 315 510 l 315 510 l 235 447 m 457 885 l 457 885 l 215 33 l 279 33 l 521 885 l 457 885 m 114 544 l 114 544 l 114 821 l 215 821 l 215 544 l 114 544 m 521 97 l 521 97 l 521 374 l 624 374 l 624 97 l 521 97 m 442 381 l 442 381 l 442 90 l 514 33 l 631 33 l 703 90 l 703 381 l 631 438 l 514 438 l 442 381 m 33 828 l 33 828 l 33 536 l 107 481 l 224 481 l 296 536 l 296 828 l 224 885 l 107 885 l 33 828 m 590 131 l 590 340 l 554 340 l 554 131 l 554 131 l 590 131 m 182 578 l 182 788 l 147 788 l 147 578 l 147 578 l 182 578 z "},"&":{"ha":700,"x_min":0,"x_max":617,"o":"m 47 656 l 47 782 l 222 918 l 532 918 l 582 717 l 283 717 l 283 676 l 401 501 l 401 581 l 617 581 l 617 135 l 432 0 l 175 0 l 0 135 l 0 464 l 117 549 l 117 549 l 47 656 m 240 421 l 240 421 l 413 167 l 203 167 l 203 393 l 240 421 m 33 446 l 33 446 l 33 151 l 188 33 l 421 33 l 583 151 l 583 547 l 435 547 l 435 390 l 250 667 l 250 751 l 539 751 l 506 885 l 235 885 l 81 765 l 81 667 l 163 540 l 33 446 m 236 200 l 349 200 l 236 367 l 236 367 l 236 200 z "},"'":{"ha":306,"x_min":0,"x_max":236,"o":"m 60 725 l 0 786 l 0 899 l 61 960 l 174 960 l 236 899 l 236 742 l 124 646 l 35 646 l 35 690 l 60 725 l 60 725 l 60 725 m 160 926 l 75 926 l 33 885 l 33 800 l 75 758 l 125 758 l 69 679 l 111 679 l 203 758 l 203 885 l 160 926 l 160 926 l 160 926 z "},"(":{"ha":351,"x_min":0,"x_max":282,"o":"m 158 904 l 158 14 l 178 0 l 282 0 l 282 -144 l 122 -144 l 0 -57 l 0 975 l 122 1063 l 282 1063 l 282 918 l 178 918 l 178 918 l 158 904 m 249 1029 l 249 1029 l 132 1029 l 33 957 l 33 -39 l 132 -111 l 249 -111 l 249 -33 l 167 -33 l 125 -3 l 125 921 l 167 951 l 249 951 l 249 1029 z "},")":{"ha":351,"x_min":0,"x_max":282,"o":"m 0 918 l 0 1063 l 160 1063 l 282 975 l 282 -57 l 160 -144 l 0 -144 l 0 0 l 104 0 l 124 14 l 124 904 l 104 918 l 0 918 m 33 1029 l 33 951 l 115 951 l 157 921 l 157 -3 l 115 -33 l 33 -33 l 33 -111 l 150 -111 l 249 -39 l 249 957 l 150 1029 l 33 1029 z "},"*":{"ha":418,"x_min":0,"x_max":349,"o":"m 106 1086 l 242 1086 l 239 1047 l 274 1075 l 349 971 l 278 926 l 349 881 l 274 776 l 239 804 l 242 765 l 106 765 l 108 804 l 75 776 l 0 881 l 69 926 l 0 971 l 75 1075 l 108 1047 l 108 1047 l 106 1086 m 47 981 l 47 981 l 132 926 l 47 871 l 81 825 l 149 882 l 142 800 l 206 800 l 200 882 l 267 825 l 300 871 l 217 926 l 300 981 l 267 1026 l 200 969 l 206 1051 l 142 1051 l 149 969 l 81 1026 l 47 981 z "},"+":{"ha":646,"x_min":0,"x_max":576,"o":"m 0 333 l 0 518 l 196 518 l 196 714 l 381 714 l 381 518 l 576 518 l 576 333 l 381 333 l 381 138 l 196 138 l 196 333 l 196 333 l 0 333 m 229 171 l 229 171 l 347 171 l 347 367 l 543 367 l 543 485 l 347 485 l 347 681 l 229 681 l 229 485 l 33 485 l 33 367 l 229 367 l 229 171 z "},",":{"ha":306,"x_min":0,"x_max":236,"o":"m 60 1 l 0 61 l 0 174 l 61 235 l 174 235 l 236 174 l 236 18 l 124 -78 l 35 -78 l 35 -33 l 60 1 l 60 1 l 60 1 m 160 201 l 75 201 l 33 160 l 33 75 l 75 33 l 125 33 l 69 -44 l 111 -44 l 203 33 l 203 160 l 160 201 l 160 201 l 160 201 z "},"-":{"ha":547,"x_min":0,"x_max":478,"o":"m 478 518 l 478 333 l 0 333 l 0 518 l 0 518 l 478 518 m 33 485 l 33 485 l 33 367 l 444 367 l 444 485 l 33 485 z "},".":{"ha":306,"x_min":0,"x_max":236,"o":"m 174 235 l 236 174 l 236 61 l 174 0 l 61 0 l 0 61 l 0 174 l 61 235 l 174 235 l 174 235 l 174 235 m 160 201 l 75 201 l 33 160 l 33 75 l 75 33 l 160 33 l 203 75 l 203 160 l 160 201 l 160 201 l 160 201 z "},"/":{"ha":485,"x_min":0,"x_max":415,"o":"m 415 918 l 154 0 l 0 0 l 261 918 l 261 918 l 415 918 m 286 885 l 286 885 l 44 33 l 129 33 l 371 885 l 286 885 z "},":":{"ha":306,"x_min":0,"x_max":236,"o":"m 174 235 l 236 174 l 236 61 l 174 0 l 61 0 l 0 61 l 0 174 l 61 235 l 174 235 l 174 235 l 174 235 m 160 201 l 75 201 l 33 160 l 33 75 l 75 33 l 160 33 l 203 75 l 203 160 l 160 201 l 160 201 l 160 201 m 160 613 l 75 613 l 33 571 l 33 485 l 75 443 l 160 443 l 203 485 l 203 571 l 160 613 l 160 613 l 160 613 m 174 646 l 236 585 l 236 471 l 174 410 l 61 410 l 0 471 l 0 585 l 61 646 l 174 646 l 174 646 l 174 646 z "},";":{"ha":306,"x_min":0,"x_max":236,"o":"m 60 1 l 0 61 l 0 174 l 61 235 l 174 235 l 236 174 l 236 18 l 124 -78 l 35 -78 l 35 -33 l 60 1 l 60 1 l 60 1 m 160 613 l 75 613 l 33 571 l 33 485 l 75 443 l 160 443 l 203 485 l 203 571 l 160 613 l 160 613 l 160 613 m 174 646 l 236 585 l 236 471 l 174 410 l 61 410 l 0 471 l 0 585 l 61 646 l 174 646 l 174 646 l 174 646 m 160 201 l 75 201 l 33 160 l 33 75 l 75 33 l 125 33 l 69 -44 l 111 -44 l 203 33 l 203 160 l 160 201 l 160 201 l 160 201 z "},"<":{"ha":524,"x_min":0,"x_max":454,"o":"m 454 369 l 392 192 l 0 354 l 0 497 l 392 660 l 454 482 l 257 425 l 257 425 l 454 369 m 33 475 l 33 475 l 33 376 l 371 236 l 411 347 l 135 425 l 411 504 l 371 615 l 33 475 z "},"=":{"ha":656,"x_min":0,"x_max":586,"o":"m 586 400 l 586 222 l 0 222 l 0 400 l 0 400 l 586 400 m 33 367 l 33 367 l 33 256 l 551 256 l 551 367 l 33 367 m 33 596 l 33 596 l 33 485 l 551 485 l 551 596 l 33 596 m 586 629 l 586 451 l 0 451 l 0 629 l 0 629 l 586 629 z "},">":{"ha":524,"x_min":0,"x_max":454,"o":"m 197 425 l 197 425 l 0 482 l 63 660 l 454 497 l 454 354 l 63 192 l 0 369 l 197 425 m 83 615 l 43 504 l 319 425 l 43 347 l 83 236 l 421 376 l 421 475 l 421 475 l 83 615 z "},"?":{"ha":658,"x_min":0,"x_max":589,"o":"m 276 232 l 335 174 l 335 61 l 272 0 l 160 0 l 99 61 l 99 174 l 157 232 l 99 232 l 99 425 l 274 561 l 354 561 l 354 717 l 0 717 l 50 918 l 414 918 l 589 782 l 589 496 l 414 360 l 335 360 l 335 232 l 276 232 l 276 232 l 276 232 m 76 885 l 43 751 l 388 751 l 388 526 l 286 526 l 132 408 l 132 265 l 300 265 l 300 393 l 403 393 l 556 513 l 556 765 l 403 885 l 76 885 l 76 885 l 76 885 m 258 201 l 174 201 l 132 160 l 132 75 l 174 33 l 258 33 l 300 75 l 300 160 l 258 201 l 258 201 l 258 201 z "},"@":{"ha":906,"x_min":0,"x_max":836,"o":"m 685 197 l 685 622 l 646 651 l 646 197 l 646 197 l 685 197 m 340 164 l 340 164 l 340 543 l 489 543 l 489 164 l 340 164 m 613 164 l 613 164 l 613 640 l 489 640 l 489 596 l 429 640 l 340 640 l 217 551 l 217 156 l 340 67 l 429 67 l 489 118 l 550 67 l 725 67 l 803 126 l 803 676 l 619 818 l 217 818 l 33 676 l 33 31 l 217 -111 l 590 -111 l 613 -33 l 250 -33 l 118 68 l 118 639 l 250 740 l 586 740 l 718 639 l 718 164 l 613 164 m 575 707 l 261 707 l 151 622 l 151 85 l 261 0 l 657 0 l 615 -144 l 206 -144 l 0 14 l 0 693 l 206 851 l 631 851 l 836 693 l 836 110 l 736 33 l 538 33 l 489 74 l 440 33 l 329 33 l 183 139 l 183 568 l 329 674 l 440 674 l 456 663 l 456 674 l 618 674 l 618 674 l 575 707 m 456 197 l 456 510 l 374 510 l 374 197 l 374 197 l 456 197 z "},"A":{"ha":822,"x_min":-14,"x_max":753,"o":"m 465 204 l 272 204 l 224 0 l -14 0 l 206 918 l 532 918 l 753 0 l 514 0 l 465 204 l 465 204 l 465 204 m 233 885 l 29 33 l 197 33 l 246 239 l 492 239 l 542 33 l 710 33 l 506 885 l 233 885 l 233 885 l 233 885 m 276 365 l 369 753 l 463 365 l 276 365 l 276 365 l 276 365 m 319 399 l 419 399 l 369 608 l 319 399 l 319 399 l 319 399 z "},"B":{"ha":701,"x_min":0,"x_max":618,"o":"m 563 503 l 618 463 l 618 135 l 443 0 l 0 0 l 0 918 l 436 918 l 613 782 l 613 538 l 563 503 l 563 503 l 563 503 m 33 885 l 33 33 l 432 33 l 585 151 l 585 446 l 504 503 l 578 556 l 578 765 l 425 885 l 33 885 l 33 885 l 33 885 m 417 167 l 203 167 l 203 431 l 417 431 l 417 167 l 417 167 l 417 167 m 410 564 l 203 564 l 203 751 l 410 751 l 410 564 l 410 564 l 410 564 m 383 200 l 383 397 l 236 397 l 236 200 l 383 200 l 383 200 l 383 200 m 376 597 l 376 717 l 236 717 l 236 597 l 376 597 l 376 597 l 376 597 z "},"C":{"ha":661,"x_min":0,"x_max":592,"o":"m 236 200 l 592 200 l 533 0 l 175 0 l 0 135 l 0 782 l 175 918 l 540 918 l 590 717 l 236 717 l 236 200 l 236 200 l 236 200 m 203 167 l 203 751 l 547 751 l 514 885 l 188 885 l 33 765 l 33 151 l 188 33 l 508 33 l 547 167 l 203 167 l 203 167 l 203 167 z "},"D":{"ha":722,"x_min":0,"x_max":639,"o":"m 464 0 l 0 0 l 0 918 l 464 918 l 639 782 l 639 135 l 639 135 l 464 0 m 203 167 l 203 167 l 203 751 l 436 751 l 436 167 l 203 167 m 606 151 l 606 151 l 606 765 l 451 885 l 33 885 l 33 33 l 451 33 l 606 151 m 403 200 l 403 717 l 236 717 l 236 200 l 236 200 l 403 200 z "},"E":{"ha":632,"x_min":0,"x_max":563,"o":"m 236 546 l 435 546 l 435 351 l 236 351 l 236 200 l 563 200 l 504 0 l 0 0 l 0 918 l 510 918 l 561 717 l 236 717 l 236 717 l 236 546 m 33 33 l 33 33 l 479 33 l 517 167 l 203 167 l 203 385 l 401 385 l 401 513 l 203 513 l 203 751 l 517 751 l 483 885 l 33 885 l 33 33 z "},"F":{"ha":632,"x_min":0,"x_max":563,"o":"m 236 546 l 435 546 l 435 351 l 236 351 l 236 0 l 0 0 l 0 918 l 511 918 l 563 717 l 236 717 l 236 717 l 236 546 m 33 885 l 33 885 l 33 33 l 203 33 l 203 385 l 401 385 l 401 513 l 203 513 l 203 751 l 518 751 l 485 885 l 33 885 z "},"G":{"ha":708,"x_min":0,"x_max":625,"o":"m 236 200 l 390 200 l 390 482 l 625 482 l 625 128 l 449 0 l 175 0 l 0 135 l 0 782 l 175 918 l 553 918 l 603 717 l 236 717 l 236 717 l 236 200 m 424 449 l 424 449 l 424 167 l 203 167 l 203 751 l 560 751 l 526 885 l 188 885 l 33 765 l 33 151 l 188 33 l 439 33 l 592 144 l 592 449 l 424 449 z "},"H":{"ha":750,"x_min":0,"x_max":667,"o":"m 236 289 l 236 0 l 0 0 l 0 918 l 236 918 l 236 482 l 431 482 l 431 918 l 667 918 l 667 0 l 431 0 l 431 289 l 431 289 l 236 289 m 633 33 l 633 33 l 633 885 l 464 885 l 464 449 l 203 449 l 203 885 l 33 885 l 33 33 l 203 33 l 203 322 l 464 322 l 464 33 l 633 33 z "},"I":{"ha":319,"x_min":0,"x_max":236,"o":"m 0 0 l 0 918 l 236 918 l 236 0 l 236 0 l 0 0 m 203 33 l 203 33 l 203 885 l 33 885 l 33 33 l 203 33 z "},"J":{"ha":613,"x_min":-14,"x_max":529,"o":"m 275 200 l 294 215 l 294 918 l 529 918 l 529 128 l 353 0 l 44 0 l -14 200 l 275 200 l 275 200 l 275 200 m 286 167 l 31 167 l 69 33 l 343 33 l 496 144 l 496 885 l 328 885 l 328 197 l 286 167 l 286 167 l 286 167 z "},"K":{"ha":772,"x_min":0,"x_max":703,"o":"m 447 918 l 703 918 l 429 575 l 683 0 l 442 0 l 274 379 l 236 332 l 236 0 l 0 0 l 0 918 l 236 918 l 236 651 l 236 651 l 447 918 m 203 556 l 203 556 l 203 885 l 33 885 l 33 33 l 203 33 l 203 343 l 282 444 l 464 33 l 632 33 l 390 581 l 632 885 l 464 885 l 203 556 z "},"L":{"ha":618,"x_min":0,"x_max":549,"o":"m 549 200 l 492 0 l 0 0 l 0 918 l 236 918 l 236 200 l 236 200 l 549 200 m 33 33 l 33 33 l 465 33 l 504 167 l 203 167 l 203 885 l 33 885 l 33 33 z "},"M":{"ha":901,"x_min":0,"x_max":818,"o":"m 408 468 l 593 918 l 818 918 l 818 0 l 582 0 l 582 301 l 458 0 l 360 0 l 236 301 l 236 0 l 0 0 l 0 918 l 225 918 l 408 468 l 408 468 l 408 468 m 408 379 l 203 885 l 33 885 l 33 33 l 203 33 l 203 472 l 382 33 l 436 33 l 615 472 l 615 33 l 785 33 l 785 885 l 615 885 l 408 379 l 408 379 l 408 379 z "},"N":{"ha":764,"x_min":0,"x_max":681,"o":"m 236 0 l 0 0 l 0 918 l 222 918 l 444 493 l 444 918 l 681 918 l 681 0 l 457 0 l 236 425 l 236 425 l 236 0 m 647 33 l 647 33 l 647 885 l 478 885 l 478 356 l 201 885 l 33 885 l 33 33 l 203 33 l 203 561 l 478 33 l 647 33 z "},"O":{"ha":743,"x_min":0,"x_max":660,"o":"m 483 0 l 176 0 l 0 128 l 0 790 l 176 918 l 483 918 l 660 790 l 660 128 l 660 128 l 483 0 m 203 167 l 203 167 l 203 751 l 458 751 l 458 167 l 203 167 m 626 144 l 626 144 l 626 774 l 472 885 l 188 885 l 33 774 l 33 144 l 188 33 l 472 33 l 626 144 m 424 200 l 424 717 l 236 717 l 236 200 l 236 200 l 424 200 z "},"P":{"ha":708,"x_min":0,"x_max":625,"o":"m 236 0 l 0 0 l 0 918 l 450 918 l 625 782 l 625 446 l 450 310 l 236 310 l 236 310 l 236 0 m 203 33 l 203 33 l 203 343 l 439 343 l 592 463 l 592 765 l 439 885 l 33 885 l 33 33 l 203 33 m 424 751 l 424 751 l 424 476 l 203 476 l 203 751 l 424 751 m 236 717 l 236 511 l 390 511 l 390 717 l 390 717 l 236 717 z "},"Q":{"ha":750,"x_min":0,"x_max":667,"o":"m 451 -100 l 215 -100 l 215 0 l 176 0 l 0 128 l 0 790 l 176 918 l 490 918 l 667 790 l 667 128 l 490 0 l 451 0 l 451 0 l 451 -100 m 203 167 l 203 167 l 203 751 l 464 751 l 464 167 l 203 167 m 633 144 l 633 144 l 633 774 l 479 885 l 188 885 l 33 774 l 33 144 l 188 33 l 249 33 l 249 -67 l 418 -67 l 418 33 l 479 33 l 633 144 m 431 200 l 431 718 l 236 718 l 236 200 l 236 200 l 431 200 z "},"R":{"ha":700,"x_min":0,"x_max":631,"o":"m 631 0 l 388 0 l 246 310 l 236 310 l 236 0 l 0 0 l 0 918 l 436 918 l 613 782 l 613 446 l 475 340 l 475 340 l 631 0 m 203 33 l 203 33 l 203 343 l 268 343 l 410 33 l 578 33 l 433 350 l 578 463 l 578 765 l 425 885 l 33 885 l 33 33 l 203 33 m 410 751 l 410 751 l 410 476 l 203 476 l 203 751 l 410 751 m 236 717 l 236 511 l 376 511 l 376 717 l 376 717 l 236 717 z "},"S":{"ha":682,"x_min":0,"x_max":599,"o":"m 236 561 l 422 561 l 599 425 l 599 135 l 422 0 l 58 0 l 0 200 l 363 200 l 363 360 l 175 360 l 0 496 l 0 782 l 175 918 l 515 918 l 565 717 l 236 717 l 236 717 l 236 561 m 489 885 l 489 885 l 188 885 l 33 765 l 33 513 l 188 393 l 396 393 l 396 167 l 44 167 l 83 33 l 411 33 l 565 151 l 565 408 l 411 526 l 203 526 l 203 751 l 522 751 l 489 885 z "},"T":{"ha":761,"x_min":-14,"x_max":692,"o":"m 460 717 l 460 0 l 225 0 l 225 717 l -14 717 l 36 918 l 642 918 l 692 717 l 460 717 l 460 717 l 460 717 m 649 751 l 615 885 l 63 885 l 29 751 l 258 751 l 258 33 l 426 33 l 426 751 l 649 751 l 649 751 l 649 751 z "},"U":{"ha":729,"x_min":0,"x_max":646,"o":"m 236 200 l 410 200 l 410 918 l 646 918 l 646 128 l 469 0 l 176 0 l 0 128 l 0 918 l 236 918 l 236 200 l 236 200 l 236 200 m 458 33 l 613 144 l 613 885 l 443 885 l 443 167 l 203 167 l 203 885 l 33 885 l 33 144 l 188 33 l 458 33 l 458 33 l 458 33 z "},"V":{"ha":824,"x_min":-14,"x_max":754,"o":"m 517 918 l 754 918 l 522 0 l 218 0 l -14 918 l 224 918 l 371 339 l 371 339 l 517 918 m 244 33 l 244 33 l 496 33 l 711 885 l 543 885 l 375 218 l 371 182 l 365 218 l 197 885 l 29 885 l 244 33 z "},"W":{"ha":1196,"x_min":-14,"x_max":1126,"o":"m 471 918 l 642 918 l 765 431 l 888 918 l 1126 918 l 894 0 l 636 0 l 556 315 l 476 0 l 218 0 l -14 918 l 224 918 l 347 431 l 347 431 l 471 918 m 244 33 l 244 33 l 450 33 l 556 453 l 663 33 l 868 33 l 1083 885 l 914 885 l 765 293 l 615 885 l 496 885 l 347 293 l 197 885 l 29 885 l 244 33 z "},"X":{"ha":851,"x_min":-14,"x_max":782,"o":"m 233 0 l -14 0 l 261 458 l -14 918 l 233 918 l 383 665 l 535 918 l 782 918 l 507 458 l 782 0 l 535 0 l 383 251 l 383 251 l 233 0 m 383 318 l 383 318 l 553 33 l 722 33 l 468 458 l 722 885 l 554 885 l 383 600 l 214 885 l 46 885 l 300 458 l 46 33 l 215 33 l 383 318 z "},"Y":{"ha":829,"x_min":-14,"x_max":760,"o":"m -14 918 l 231 918 l 372 631 l 515 918 l 760 918 l 490 389 l 490 0 l 254 0 l 254 389 l 254 389 l -14 918 m 289 33 l 289 33 l 457 33 l 457 396 l 704 885 l 536 885 l 372 556 l 210 885 l 40 885 l 289 396 l 289 33 z "},"Z":{"ha":769,"x_min":-14,"x_max":700,"o":"m 700 200 l 642 0 l -14 0 l 353 717 l 22 717 l 81 918 l 700 918 l 333 200 l 333 200 l 700 200 m 646 885 l 646 885 l 106 885 l 67 751 l 408 751 l 42 33 l 617 33 l 656 167 l 278 167 l 646 885 z "},"[":{"ha":338,"x_min":0,"x_max":268,"o":"m 158 0 l 268 0 l 268 -144 l 0 -144 l 0 1063 l 268 1063 l 268 918 l 158 918 l 158 918 l 158 0 m 33 1029 l 33 1029 l 33 -111 l 235 -111 l 235 -33 l 125 -33 l 125 951 l 235 951 l 235 1029 l 33 1029 z "},"\\":{"ha":485,"x_min":0,"x_max":415,"o":"m 415 0 l 261 0 l 0 918 l 154 918 l 415 0 m 129 885 l 44 885 l 286 33 l 371 33 l 129 885 z "},"]":{"ha":338,"x_min":0,"x_max":268,"o":"m 0 918 l 0 1063 l 268 1063 l 268 -144 l 0 -144 l 0 0 l 110 0 l 110 918 l 0 918 m 235 1029 l 33 1029 l 33 951 l 143 951 l 143 -33 l 33 -33 l 33 -111 l 235 -111 l 235 1029 z "},"^":{"ha":538,"x_min":0,"x_max":468,"o":"m 235 892 l 178 788 l 0 835 l 172 1056 l 296 1056 l 468 835 l 290 788 l 235 892 l 235 892 l 235 892 m 189 1022 l 58 854 l 161 826 l 235 963 l 308 826 l 411 854 l 281 1022 l 189 1022 l 189 1022 l 189 1022 z "},"_":{"ha":978,"x_min":0,"x_max":908,"o":"m 0 0 l 908 0 l 908 -135 l 0 -135 l 0 -135 l 0 0 m 33 -101 l 33 -101 l 875 -101 l 875 -33 l 33 -33 l 33 -101 z "},"`":{"ha":450,"x_min":0,"x_max":381,"o":"m 0 929 l 0 975 l 219 1035 l 381 843 l 381 806 l 279 776 l 279 776 l 0 929 m 283 813 l 283 813 l 347 831 l 207 996 l 33 949 l 283 813 z "},"a":{"ha":788,"x_min":-14,"x_max":718,"o":"m 267 182 l 224 0 l -14 0 l 190 851 l 514 851 l 718 0 l 481 0 l 438 182 l 438 182 l 267 182 m 197 33 l 197 33 l 240 215 l 464 215 l 507 33 l 676 33 l 488 818 l 217 818 l 29 33 l 197 33 m 353 682 l 353 682 l 433 342 l 271 342 l 353 682 m 314 376 l 392 376 l 353 538 l 353 538 l 314 376 z "},"b":{"ha":668,"x_min":0,"x_max":585,"o":"m 528 457 l 585 417 l 585 135 l 410 0 l 0 0 l 0 851 l 403 851 l 578 715 l 578 492 l 528 457 l 528 457 l 528 457 m 33 818 l 33 33 l 399 33 l 551 151 l 551 399 l 469 457 l 544 508 l 544 700 l 392 818 l 33 818 l 33 818 l 33 818 m 383 167 l 203 167 l 203 383 l 383 383 l 383 167 l 383 167 l 383 167 m 376 517 l 203 517 l 203 685 l 376 685 l 376 517 l 376 517 l 376 517 m 349 200 l 349 350 l 236 350 l 236 200 l 349 200 l 349 200 l 349 200 m 343 551 l 343 650 l 236 650 l 236 551 l 343 551 l 343 551 l 343 551 z "},"c":{"ha":621,"x_min":0,"x_max":551,"o":"m 236 200 l 551 200 l 493 0 l 175 0 l 0 135 l 0 715 l 175 851 l 497 851 l 547 650 l 236 650 l 236 200 l 236 200 l 236 200 m 203 167 l 203 685 l 504 685 l 471 818 l 188 818 l 33 700 l 33 151 l 188 33 l 468 33 l 507 167 l 203 167 l 203 167 l 203 167 z "},"d":{"ha":689,"x_min":0,"x_max":606,"o":"m 429 0 l 0 0 l 0 851 l 429 851 l 606 715 l 606 135 l 606 135 l 429 0 m 203 167 l 203 167 l 203 685 l 403 685 l 403 167 l 203 167 m 572 151 l 572 151 l 572 700 l 418 818 l 33 818 l 33 33 l 418 33 l 572 151 m 369 200 l 369 650 l 236 650 l 236 200 l 236 200 l 369 200 z "},"e":{"ha":604,"x_min":0,"x_max":535,"o":"m 236 522 l 407 522 l 407 329 l 236 329 l 236 200 l 535 200 l 476 0 l 0 0 l 0 851 l 482 851 l 532 650 l 236 650 l 236 650 l 236 522 m 33 33 l 33 33 l 451 33 l 490 167 l 203 167 l 203 363 l 374 363 l 374 489 l 203 489 l 203 685 l 489 685 l 456 818 l 33 818 l 33 33 z "},"f":{"ha":597,"x_min":0,"x_max":528,"o":"m 236 522 l 401 522 l 401 329 l 236 329 l 236 0 l 0 0 l 0 851 l 478 851 l 528 650 l 236 650 l 236 650 l 236 522 m 33 818 l 33 818 l 33 33 l 203 33 l 203 363 l 367 363 l 367 489 l 203 489 l 203 685 l 485 685 l 451 818 l 33 818 z "},"g":{"ha":668,"x_min":0,"x_max":585,"o":"m 236 200 l 349 200 l 349 460 l 585 460 l 585 128 l 408 0 l 175 0 l 0 135 l 0 715 l 175 851 l 501 851 l 551 650 l 236 650 l 236 650 l 236 200 m 383 425 l 383 425 l 383 167 l 203 167 l 203 685 l 508 685 l 475 818 l 188 818 l 33 700 l 33 151 l 188 33 l 399 33 l 551 144 l 551 425 l 383 425 z "},"h":{"ha":710,"x_min":0,"x_max":626,"o":"m 390 460 l 390 851 l 626 851 l 626 0 l 390 0 l 390 265 l 236 265 l 236 0 l 0 0 l 0 851 l 236 851 l 236 460 l 236 460 l 390 460 m 203 33 l 203 33 l 203 299 l 424 299 l 424 33 l 593 33 l 593 818 l 424 818 l 424 425 l 203 425 l 203 818 l 33 818 l 33 33 l 203 33 z "},"i":{"ha":319,"x_min":0,"x_max":236,"o":"m 0 0 l 0 851 l 236 851 l 236 0 l 236 0 l 0 0 m 203 33 l 203 33 l 203 818 l 33 818 l 33 33 l 203 33 z "},"j":{"ha":572,"x_min":-14,"x_max":489,"o":"m 235 200 l 253 215 l 253 851 l 489 851 l 489 128 l 313 0 l 44 0 l -14 200 l 235 200 l 235 200 l 235 200 m 244 167 l 31 167 l 69 33 l 303 33 l 456 144 l 456 818 l 288 818 l 288 197 l 244 167 l 244 167 l 244 167 z "},"k":{"ha":725,"x_min":0,"x_max":656,"o":"m 400 850 l 656 850 l 413 564 l 642 -1 l 401 -1 l 249 372 l 236 357 l 236 -1 l 0 -1 l 0 850 l 236 850 l 236 658 l 236 658 l 400 850 m 203 33 l 203 33 l 203 369 l 260 436 l 424 33 l 592 33 l 374 571 l 583 817 l 415 817 l 203 567 l 203 817 l 33 817 l 33 33 l 203 33 z "},"l":{"ha":599,"x_min":0,"x_max":529,"o":"m 529 200 l 471 0 l 0 0 l 0 851 l 236 851 l 236 200 l 236 200 l 529 200 m 33 33 l 33 33 l 446 33 l 485 167 l 203 167 l 203 818 l 33 818 l 33 33 z "},"m":{"ha":861,"x_min":0,"x_max":778,"o":"m 553 851 l 778 851 l 778 0 l 542 0 l 542 247 l 439 0 l 339 0 l 236 247 l 236 0 l 0 0 l 0 851 l 225 851 l 389 458 l 389 458 l 553 851 m 203 33 l 203 33 l 203 415 l 361 33 l 415 33 l 575 415 l 575 33 l 744 33 l 744 818 l 575 818 l 389 372 l 203 818 l 33 818 l 33 33 l 203 33 z "},"n":{"ha":724,"x_min":0,"x_max":640,"o":"m 404 851 l 640 851 l 640 0 l 417 0 l 236 351 l 236 0 l 0 0 l 0 851 l 222 851 l 404 500 l 404 500 l 404 851 m 203 33 l 203 33 l 203 490 l 438 33 l 606 33 l 606 818 l 438 818 l 438 361 l 203 818 l 33 818 l 33 33 l 203 33 z "},"o":{"ha":703,"x_min":0,"x_max":619,"o":"m 443 0 l 176 0 l 0 128 l 0 724 l 176 851 l 443 851 l 619 724 l 619 128 l 619 128 l 443 0 m 203 167 l 203 167 l 203 685 l 418 685 l 418 167 l 203 167 m 586 144 l 586 144 l 586 707 l 432 818 l 188 818 l 33 707 l 33 144 l 188 33 l 432 33 l 586 144 m 383 200 l 383 650 l 236 650 l 236 200 l 236 200 l 383 200 z "},"p":{"ha":675,"x_min":0,"x_max":592,"o":"m 236 0 l 0 0 l 0 851 l 417 851 l 592 715 l 592 422 l 417 286 l 236 286 l 236 286 l 236 0 m 203 33 l 203 33 l 203 321 l 404 321 l 558 439 l 558 700 l 404 818 l 33 818 l 33 33 l 203 33 m 390 685 l 390 685 l 390 454 l 203 454 l 203 685 l 390 685 m 236 650 l 236 488 l 356 488 l 356 650 l 356 650 l 236 650 z "},"q":{"ha":710,"x_min":0,"x_max":626,"o":"m 431 -100 l 196 -100 l 196 0 l 176 0 l 0 128 l 0 724 l 176 851 l 450 851 l 626 724 l 626 128 l 450 0 l 431 0 l 431 0 l 431 -100 m 203 167 l 203 167 l 203 685 l 424 685 l 424 167 l 203 167 m 593 144 l 593 144 l 593 707 l 439 818 l 188 818 l 33 707 l 33 144 l 188 33 l 229 33 l 229 -67 l 397 -67 l 397 33 l 439 33 l 593 144 m 390 200 l 390 650 l 236 650 l 236 200 l 236 200 l 390 200 z "},"r":{"ha":678,"x_min":0,"x_max":608,"o":"m 608 0 l 367 0 l 239 286 l 236 286 l 236 0 l 0 0 l 0 851 l 410 851 l 585 715 l 585 422 l 464 325 l 464 325 l 608 0 m 203 33 l 203 33 l 203 321 l 261 321 l 389 33 l 557 33 l 424 335 l 551 439 l 551 700 l 399 818 l 33 818 l 33 33 l 203 33 m 203 454 l 203 454 l 203 685 l 383 685 l 383 454 l 203 454 m 349 488 l 349 650 l 236 650 l 236 488 l 236 488 l 349 488 z "},"s":{"ha":642,"x_min":0,"x_max":558,"o":"m 236 538 l 382 538 l 558 401 l 558 135 l 382 0 l 58 0 l 0 200 l 322 200 l 322 336 l 175 336 l 0 472 l 0 715 l 175 851 l 474 851 l 525 650 l 236 650 l 236 650 l 236 538 m 449 818 l 449 818 l 188 818 l 33 700 l 33 489 l 188 371 l 356 371 l 356 167 l 44 167 l 83 33 l 371 33 l 525 151 l 525 386 l 371 504 l 203 504 l 203 685 l 482 685 l 449 818 z "},"t":{"ha":735,"x_min":-14,"x_max":665,"o":"m 447 650 l 447 0 l 211 0 l 211 650 l -14 650 l 36 851 l 615 851 l 665 650 l 447 650 l 447 650 l 447 650 m 622 685 l 589 818 l 63 818 l 29 685 l 244 685 l 244 33 l 413 33 l 413 685 l 622 685 l 622 685 l 622 685 z "},"u":{"ha":696,"x_min":0,"x_max":613,"o":"m 236 200 l 376 200 l 376 851 l 613 851 l 613 128 l 436 0 l 176 0 l 0 128 l 0 851 l 236 851 l 236 200 l 236 200 l 236 200 m 425 33 l 578 144 l 578 818 l 410 818 l 410 167 l 203 167 l 203 818 l 33 818 l 33 144 l 188 33 l 425 33 l 425 33 l 425 33 z "},"v":{"ha":781,"x_min":-14,"x_max":711,"o":"m 349 328 l 474 851 l 711 851 l 507 0 l 190 0 l -14 851 l 224 851 l 349 328 l 349 328 l 349 328 m 197 818 l 29 818 l 217 33 l 481 33 l 669 818 l 500 818 l 351 197 l 349 175 l 346 197 l 197 818 l 197 818 l 197 818 z "},"w":{"ha":1083,"x_min":-14,"x_max":1014,"o":"m 313 469 l 401 851 l 599 851 l 688 469 l 776 851 l 1014 851 l 810 0 l 564 0 l 500 268 l 436 0 l 190 0 l -14 851 l 224 851 l 313 469 l 313 469 l 313 469 m 197 818 l 29 818 l 217 33 l 410 33 l 500 413 l 590 33 l 783 33 l 971 818 l 803 818 l 688 321 l 571 818 l 429 818 l 313 321 l 197 818 l 197 818 l 197 818 z "},"x":{"ha":804,"x_min":-14,"x_max":735,"o":"m -12 851 l 235 851 l 361 631 l 486 851 l 733 851 l 483 426 l 735 0 l 488 0 l 361 222 l 233 0 l -14 0 l 238 426 l 238 426 l -12 851 m 214 33 l 214 33 l 361 290 l 507 33 l 676 33 l 444 426 l 675 818 l 506 818 l 361 563 l 215 818 l 46 818 l 276 426 l 44 33 l 214 33 z "},"y":{"ha":789,"x_min":-14,"x_max":719,"o":"m -14 851 l 231 851 l 353 594 l 475 851 l 719 851 l 471 351 l 471 0 l 235 0 l 235 351 l 235 351 l -14 851 m 268 360 l 268 360 l 268 33 l 436 33 l 436 360 l 664 818 l 496 818 l 353 515 l 208 818 l 40 818 l 268 360 z "},"z":{"ha":735,"x_min":-14,"x_max":665,"o":"m 665 200 l 607 0 l -14 0 l 318 650 l 10 650 l 68 851 l 665 851 l 333 200 l 333 200 l 665 200 m 610 818 l 610 818 l 93 818 l 54 685 l 374 685 l 42 33 l 582 33 l 621 167 l 278 167 l 610 818 z "},"{":{"ha":393,"x_min":0,"x_max":324,"o":"m 213 904 l 213 478 l 194 458 l 213 440 l 213 14 l 232 0 l 324 0 l 324 -144 l 176 -144 l 56 -57 l 56 386 l 0 386 l 0 532 l 56 532 l 56 975 l 176 1063 l 324 1063 l 324 918 l 232 918 l 232 918 l 213 904 m 290 1029 l 290 1029 l 188 1029 l 89 957 l 89 497 l 33 497 l 33 421 l 89 421 l 89 -39 l 188 -111 l 290 -111 l 290 -33 l 221 -33 l 179 -3 l 179 426 l 147 458 l 179 492 l 179 921 l 221 951 l 290 951 l 290 1029 z "},"|":{"ha":221,"x_min":0,"x_max":151,"o":"m 151 985 l 151 -133 l 0 -133 l 0 985 l 0 985 l 151 985 m 33 951 l 33 951 l 33 -100 l 118 -100 l 118 951 l 33 951 z "},"}":{"ha":393,"x_min":0,"x_max":324,"o":"m 0 918 l 0 1063 l 147 1063 l 268 975 l 268 532 l 324 532 l 324 386 l 268 386 l 268 -57 l 147 -144 l 0 -144 l 0 0 l 92 0 l 111 14 l 111 440 l 129 458 l 111 478 l 111 904 l 92 918 l 0 918 m 33 1029 l 33 951 l 103 951 l 144 921 l 144 492 l 176 458 l 144 426 l 144 -3 l 103 -33 l 33 -33 l 33 -111 l 136 -111 l 235 -39 l 235 421 l 290 421 l 290 497 l 235 497 l 235 957 l 136 1029 l 33 1029 z "},"~":{"ha":606,"x_min":0,"x_max":536,"o":"m 372 488 l 435 536 l 536 503 l 457 360 l 354 304 l 164 364 l 101 315 l 0 349 l 79 492 l 181 547 l 372 488 l 372 488 l 372 488 m 94 353 l 157 401 l 351 340 l 432 385 l 486 483 l 440 499 l 379 450 l 185 511 l 104 467 l 49 368 l 94 353 l 94 353 l 94 353 z "},"¡":{"ha":328,"x_min":0,"x_max":258,"o":"m 189 618 l 224 618 l 258 -68 l 0 -68 l 33 618 l 69 618 l 11 676 l 11 789 l 72 850 l 185 850 l 247 789 l 247 676 l 189 618 m 65 585 l 35 -35 l 222 -35 l 192 585 l 65 585 m 171 649 l 214 690 l 214 775 l 171 817 l 86 817 l 44 775 l 44 690 l 86 649 l 171 649 z "},"¢":{"ha":635,"x_min":0,"x_max":565,"o":"m 236 200 l 565 200 l 507 0 l 410 0 l 410 -87 l 258 -87 l 258 0 l 175 0 l 0 135 l 0 649 l 175 785 l 258 785 l 258 871 l 410 871 l 410 785 l 515 785 l 565 583 l 236 583 l 236 200 l 236 200 l 236 200 m 203 167 l 203 617 l 522 617 l 489 751 l 376 751 l 376 838 l 292 838 l 292 751 l 188 751 l 33 632 l 33 151 l 188 33 l 292 33 l 292 -53 l 376 -53 l 376 33 l 482 33 l 521 167 l 203 167 l 203 167 l 203 167 z "},"£":{"ha":686,"x_min":0,"x_max":617,"o":"m 0 383 l 0 535 l 67 535 l 67 782 l 243 918 l 488 918 l 538 717 l 303 717 l 303 535 l 481 535 l 481 383 l 303 383 l 303 200 l 617 200 l 558 0 l 67 0 l 67 383 l 67 383 l 0 383 m 101 33 l 101 33 l 533 33 l 572 167 l 269 167 l 269 417 l 447 417 l 447 501 l 269 501 l 269 751 l 494 751 l 461 885 l 254 885 l 101 765 l 101 501 l 33 501 l 33 417 l 101 417 l 101 33 z "},"¤":{"ha":792,"x_min":0,"x_max":722,"o":"m 0 681 l 107 788 l 182 713 l 240 758 l 482 758 l 542 713 l 615 788 l 722 681 l 663 619 l 688 600 l 688 251 l 663 232 l 722 171 l 615 64 l 542 139 l 482 93 l 240 93 l 182 139 l 107 64 l 0 171 l 61 232 l 36 251 l 36 600 l 61 619 l 61 619 l 0 681 m 160 306 l 160 306 l 160 546 l 292 647 l 431 647 l 563 546 l 563 306 l 431 204 l 292 204 l 160 306 m 69 583 l 69 583 l 69 268 l 111 235 l 47 171 l 107 113 l 179 183 l 251 126 l 471 126 l 544 183 l 615 113 l 675 171 l 611 235 l 654 268 l 654 583 l 611 617 l 675 681 l 615 739 l 544 668 l 471 725 l 251 725 l 179 668 l 107 739 l 47 681 l 111 617 l 69 583 m 303 238 l 419 238 l 529 322 l 529 529 l 419 614 l 303 614 l 193 529 l 193 322 l 193 322 l 303 238 z "},"¥":{"ha":844,"x_min":0,"x_max":775,"o":"m 94 188 l 94 339 l 269 339 l 269 356 l 94 356 l 94 507 l 208 507 l 0 918 l 244 918 l 388 636 l 531 918 l 775 918 l 565 507 l 681 507 l 681 356 l 506 356 l 506 339 l 681 339 l 681 188 l 506 188 l 506 0 l 269 0 l 269 188 l 269 188 l 94 188 m 303 33 l 303 33 l 471 33 l 471 221 l 646 221 l 646 306 l 471 306 l 471 390 l 646 390 l 646 474 l 511 474 l 719 885 l 551 885 l 388 563 l 224 885 l 54 885 l 264 474 l 128 474 l 128 390 l 303 390 l 303 306 l 128 306 l 128 221 l 303 221 l 303 33 z "},"¦":{"ha":221,"x_min":0,"x_max":151,"o":"m 151 -133 l 0 -133 l 0 985 l 151 985 l 151 425 l 151 425 l 151 -133 m 33 951 l 33 951 l 33 443 l 118 443 l 118 951 l 33 951 m 118 408 l 118 408 l 33 408 l 33 -100 l 118 -100 l 118 408 z "},"§":{"ha":675,"x_min":0,"x_max":606,"o":"m 236 649 l 561 506 l 561 271 l 606 251 l 606 1 l 429 -133 l 60 -133 l 1 67 l 369 67 l 369 147 l 43 292 l 43 526 l 0 546 l 0 782 l 175 918 l 521 918 l 572 717 l 236 717 l 236 717 l 236 649 m 33 765 l 33 765 l 33 568 l 78 549 l 78 313 l 403 169 l 403 33 l 46 33 l 85 -100 l 418 -100 l 572 18 l 572 229 l 528 249 l 528 483 l 203 628 l 203 751 l 529 751 l 496 885 l 188 885 l 33 765 m 360 322 l 360 322 l 246 372 l 246 475 l 360 425 l 360 322 m 326 403 l 279 424 l 279 394 l 326 374 l 326 374 l 326 403 z "},"¨":{"ha":496,"x_min":0,"x_max":426,"o":"m 214 963 l 161 911 l 57 911 l 0 968 l 0 1072 l 57 1129 l 161 1129 l 214 1078 l 265 1129 l 369 1129 l 426 1072 l 426 968 l 369 911 l 265 911 l 214 963 l 214 963 l 214 963 m 356 1096 l 279 1096 l 242 1058 l 242 982 l 279 944 l 356 944 l 393 982 l 393 1058 l 356 1096 l 356 1096 l 356 1096 m 147 1096 l 71 1096 l 33 1058 l 33 982 l 71 944 l 147 944 l 185 982 l 185 1058 l 147 1096 l 147 1096 l 147 1096 z "},"©":{"ha":818,"x_min":0,"x_max":749,"o":"m 206 851 l 543 851 l 749 693 l 749 158 l 543 0 l 206 0 l 0 158 l 0 693 l 0 693 l 206 851 m 325 575 l 532 575 l 507 672 l 314 672 l 203 586 l 203 265 l 314 178 l 503 178 l 531 276 l 325 276 l 325 276 l 325 575 m 118 213 l 118 213 l 118 639 l 250 740 l 499 740 l 631 639 l 631 213 l 499 111 l 250 111 l 118 213 m 33 676 l 33 676 l 33 175 l 217 33 l 532 33 l 715 175 l 715 676 l 532 818 l 217 818 l 33 676 m 303 144 l 168 249 l 168 603 l 303 707 l 261 707 l 151 622 l 151 229 l 261 144 l 488 144 l 488 144 l 488 144 l 303 144 m 597 229 l 597 622 l 544 663 l 575 542 l 358 542 l 358 310 l 575 310 l 539 185 l 539 185 l 597 229 z "},"ª":{"ha":432,"x_min":0,"x_max":363,"o":"m 160 713 l 142 633 l 0 633 l 97 1038 l 267 1038 l 363 633 l 221 633 l 203 713 l 203 713 l 160 713 m 115 668 l 115 668 l 133 746 l 229 746 l 249 668 l 321 668 l 239 1004 l 124 1004 l 43 668 l 115 668 m 182 946 l 182 946 l 217 800 l 147 800 l 182 946 z "},"«":{"ha":604,"x_min":0,"x_max":535,"o":"m 203 118 l 0 425 l 203 733 l 324 632 l 390 733 l 535 613 l 376 425 l 535 239 l 390 118 l 324 219 l 324 219 l 203 118 m 40 425 l 40 425 l 210 168 l 300 243 l 146 425 l 300 608 l 210 683 l 40 425 m 228 425 l 228 425 l 397 168 l 488 243 l 333 425 l 488 608 l 397 683 l 228 425 z "},"¬":{"ha":547,"x_min":0,"x_max":478,"o":"m 0 333 l 0 518 l 478 518 l 478 215 l 293 215 l 293 333 l 293 333 l 0 333 m 33 485 l 33 485 l 33 367 l 326 367 l 326 249 l 444 249 l 444 485 l 33 485 z "},"­":{"ha":547,"x_min":0,"x_max":478,"o":"m 478 518 l 478 333 l 0 333 l 0 518 l 478 518 m 33 367 l 444 367 l 444 485 l 33 485 l 33 367 z "},"®":{"ha":485,"x_min":0,"x_max":415,"o":"m 100 1038 l 315 1038 l 415 960 l 415 711 l 315 633 l 100 633 l 0 711 l 0 960 l 0 960 l 100 1038 m 33 943 l 33 943 l 33 728 l 113 668 l 303 668 l 382 728 l 382 943 l 303 1004 l 113 1004 l 33 943 m 83 744 l 83 744 l 83 928 l 140 971 l 275 971 l 332 928 l 332 744 l 275 701 l 140 701 l 83 744 m 185 843 l 185 843 l 185 906 l 236 906 l 236 843 l 185 843 m 140 942 l 140 942 l 140 729 l 185 729 l 185 807 l 203 807 l 236 729 l 282 729 l 247 811 l 282 839 l 282 910 l 240 942 l 140 942 z "},"¯":{"ha":439,"x_min":0,"x_max":369,"o":"m 369 1074 l 369 917 l 0 917 l 0 1074 l 0 1074 l 369 1074 m 33 1040 l 33 1040 l 33 950 l 336 950 l 336 1040 l 33 1040 z "},"°":{"ha":339,"x_min":0,"x_max":269,"o":"m 192 1181 l 269 1111 l 269 979 l 192 911 l 78 911 l 0 979 l 0 1111 l 78 1181 l 192 1181 m 178 1146 l 90 1146 l 33 1096 l 33 994 l 90 944 l 178 944 l 236 994 l 236 1096 l 178 1146 m 90 1096 l 179 1096 l 179 994 l 90 994 l 90 1096 m 124 1063 l 124 1028 l 144 1028 l 144 1063 l 124 1063 z "},"±":{"ha":646,"x_min":0,"x_max":576,"o":"m 576 185 l 576 0 l 0 0 l 0 185 l 0 185 l 576 185 m 33 151 l 33 151 l 33 33 l 543 33 l 543 151 l 33 151 m 229 253 l 229 253 l 347 253 l 347 449 l 543 449 l 543 567 l 347 567 l 347 763 l 229 763 l 229 567 l 33 567 l 33 449 l 229 449 l 229 253 m 0 415 l 0 600 l 196 600 l 196 796 l 381 796 l 381 600 l 576 600 l 576 415 l 381 415 l 381 218 l 196 218 l 196 415 l 196 415 l 0 415 z "},"²":{"ha":354,"x_min":0,"x_max":285,"o":"m 285 754 l 250 633 l 7 633 l 7 811 l 90 875 l 139 875 l 139 918 l 0 918 l 31 1038 l 190 1038 l 274 974 l 274 819 l 189 754 l 285 754 l 285 754 l 285 754 m 57 1004 l 43 951 l 174 951 l 174 842 l 101 842 l 40 794 l 40 668 l 225 668 l 240 721 l 107 721 l 107 789 l 179 789 l 240 836 l 240 957 l 179 1004 l 57 1004 l 57 1004 l 57 1004 z "},"³":{"ha":342,"x_min":0,"x_max":272,"o":"m 136 918 l 4 918 l 35 1038 l 188 1038 l 269 974 l 269 850 l 272 847 l 272 697 l 190 633 l 35 633 l 0 754 l 139 754 l 139 790 l 72 790 l 72 911 l 136 911 l 136 918 l 136 918 l 136 918 m 169 951 l 169 878 l 106 878 l 106 825 l 172 825 l 172 732 l 156 721 l 44 721 l 60 668 l 178 668 l 239 714 l 239 831 l 207 853 l 236 874 l 236 957 l 175 1004 l 61 1004 l 47 951 l 169 951 l 169 951 l 169 951 z "},"´":{"ha":450,"x_min":0,"x_max":381,"o":"m 101 776 l 101 776 l 0 806 l 0 843 l 161 1035 l 381 975 l 381 929 l 101 776 m 347 949 l 174 996 l 33 831 l 97 813 l 97 813 l 347 949 z "},"µ":{"ha":675,"x_min":0,"x_max":606,"o":"m 236 26 l 236 -133 l 0 -133 l 0 851 l 236 851 l 236 200 l 369 200 l 369 851 l 606 851 l 606 128 l 429 0 l 274 0 l 236 26 l 236 26 l 236 26 m 418 33 l 572 144 l 572 818 l 403 818 l 403 167 l 203 167 l 203 818 l 33 818 l 33 -100 l 203 -100 l 203 93 l 283 33 l 418 33 l 418 33 l 418 33 z "},"¶":{"ha":1006,"x_min":0,"x_max":936,"o":"m 254 310 l 175 310 l 0 446 l 0 782 l 175 918 l 886 918 l 936 722 l 757 722 l 757 -133 l 528 -133 l 528 722 l 483 722 l 483 -133 l 254 -133 l 254 310 l 254 310 l 254 310 m 289 -100 l 450 -100 l 450 756 l 561 756 l 561 -100 l 724 -100 l 724 756 l 893 756 l 860 885 l 188 885 l 33 765 l 33 463 l 188 343 l 289 343 l 289 -100 l 289 -100 l 289 -100 z "},"·":{"ha":306,"x_min":0,"x_max":236,"o":"m 174 543 l 236 482 l 236 369 l 174 308 l 61 308 l 0 369 l 0 482 l 61 543 l 174 543 l 174 543 l 174 543 m 160 510 l 75 510 l 33 468 l 33 383 l 75 342 l 160 342 l 203 383 l 203 468 l 160 510 l 160 510 l 160 510 z "},"¸":{"ha":313,"x_min":0,"x_max":243,"o":"m 99 -62 l 99 -8 l 0 28 l 39 121 l 183 97 l 243 22 l 243 -93 l 183 -168 l 39 -190 l 0 -99 l 99 -62 l 99 -62 l 99 -62 m 132 -86 l 44 -118 l 60 -154 l 165 -136 l 210 -82 l 210 11 l 165 65 l 60 83 l 44 47 l 132 15 l 132 -86 l 132 -86 l 132 -86 z "},"¹":{"ha":238,"x_min":0,"x_max":168,"o":"m 0 911 l 32 1038 l 168 1038 l 168 633 l 33 633 l 33 911 l 33 911 l 0 911 m 133 668 l 133 668 l 133 1004 l 58 1004 l 43 944 l 67 944 l 67 668 l 133 668 z "},"º":{"ha":356,"x_min":0,"x_max":286,"o":"m 83 1038 l 203 1038 l 286 974 l 286 697 l 203 633 l 83 633 l 0 697 l 0 974 l 0 974 l 83 1038 m 100 721 l 100 721 l 100 951 l 185 951 l 185 721 l 100 721 m 33 957 l 33 957 l 33 714 l 94 668 l 192 668 l 251 714 l 251 957 l 192 1004 l 94 1004 l 33 957 m 151 754 l 151 918 l 133 918 l 133 754 l 133 754 l 151 754 z "},"»":{"ha":604,"x_min":0,"x_max":535,"o":"m 211 219 l 211 219 l 144 118 l 0 239 l 158 425 l 0 613 l 144 733 l 211 632 l 332 733 l 535 425 l 332 118 l 211 219 m 325 683 l 235 608 l 389 425 l 235 243 l 325 168 l 494 425 l 494 425 l 325 683 m 138 683 l 47 608 l 201 425 l 47 243 l 138 168 l 307 425 l 307 425 l 138 683 z "},"¼":{"ha":696,"x_min":0,"x_max":626,"o":"m 469 918 l 208 0 l 74 0 l 335 918 l 335 918 l 469 918 m 361 885 l 361 885 l 118 33 l 183 33 l 425 885 l 361 885 m 401 186 l 401 186 l 496 438 l 419 438 l 324 186 l 363 126 l 489 126 l 489 33 l 568 33 l 568 126 l 592 126 l 592 186 l 568 186 l 568 374 l 489 374 l 489 186 l 401 186 m 151 481 l 151 481 l 151 885 l 61 885 l 43 813 l 72 813 l 72 481 l 151 481 m 601 408 l 601 219 l 626 219 l 626 93 l 601 93 l 601 0 l 454 0 l 454 93 l 344 93 l 286 182 l 396 471 l 544 471 l 521 408 l 521 408 l 601 408 m 0 779 l 35 918 l 186 918 l 186 447 l 39 447 l 39 779 l 39 779 l 0 779 z "},"½":{"ha":699,"x_min":0,"x_max":629,"o":"m 522 471 l 618 397 l 618 218 l 522 144 l 458 144 l 458 131 l 629 131 l 590 0 l 311 0 l 311 203 l 406 276 l 471 276 l 471 340 l 306 340 l 208 0 l 74 0 l 335 918 l 469 918 l 342 471 l 342 471 l 522 471 m 361 885 l 361 885 l 118 33 l 183 33 l 425 885 l 361 885 m 347 374 l 504 374 l 504 242 l 417 242 l 344 186 l 344 33 l 565 33 l 583 97 l 425 97 l 425 179 l 511 179 l 583 235 l 583 381 l 511 438 l 364 438 l 364 438 l 347 374 m 151 481 l 151 481 l 151 885 l 61 885 l 43 813 l 72 813 l 72 481 l 151 481 m 0 779 l 35 918 l 186 918 l 186 447 l 39 447 l 39 779 l 39 779 l 0 779 z "},"¾":{"ha":788,"x_min":0,"x_max":718,"o":"m 4 788 l 38 918 l 213 918 l 308 844 l 308 711 l 297 703 l 311 693 l 311 521 l 217 447 l 38 447 l 0 578 l 164 578 l 164 635 l 85 635 l 85 765 l 161 765 l 161 788 l 161 788 l 4 788 m 194 732 l 118 732 l 118 669 l 197 669 l 197 558 l 178 544 l 44 544 l 63 481 l 204 481 l 278 536 l 278 676 l 239 703 l 275 728 l 275 828 l 201 885 l 64 885 l 47 821 l 194 821 l 194 821 l 194 732 m 453 885 l 453 885 l 211 33 l 275 33 l 517 885 l 453 885 m 493 186 l 493 186 l 589 438 l 511 438 l 417 186 l 454 126 l 581 126 l 581 33 l 660 33 l 660 126 l 685 126 l 685 186 l 660 186 l 660 374 l 581 374 l 581 186 l 493 186 m 561 918 l 300 0 l 167 0 l 428 918 l 428 918 l 561 918 m 694 408 l 694 219 l 718 219 l 718 93 l 694 93 l 694 0 l 547 0 l 547 93 l 436 93 l 379 182 l 488 471 l 638 471 l 613 408 l 613 408 l 694 408 z "},"¿":{"ha":658,"x_min":0,"x_max":589,"o":"m 313 619 l 254 678 l 254 790 l 317 851 l 429 851 l 490 790 l 490 678 l 432 619 l 490 619 l 490 426 l 315 290 l 235 290 l 235 135 l 589 135 l 539 -67 l 175 -67 l 0 69 l 0 356 l 175 492 l 254 492 l 254 619 l 313 619 m 513 -33 l 546 100 l 201 100 l 201 325 l 303 325 l 457 443 l 457 586 l 289 586 l 289 458 l 186 458 l 33 339 l 33 86 l 186 -33 l 513 -33 m 331 650 l 415 650 l 457 692 l 457 776 l 415 818 l 331 818 l 289 776 l 289 692 l 331 650 z "},"À":{"ha":822,"x_min":-14,"x_max":753,"o":"m 465 204 l 272 204 l 224 0 l -14 0 l 206 918 l 532 918 l 753 0 l 514 0 l 465 204 m 233 885 l 29 33 l 197 33 l 246 239 l 492 239 l 542 33 l 710 33 l 506 885 l 233 885 m 90 1140 l 90 1186 l 310 1246 l 471 1054 l 471 1017 l 369 988 l 90 1140 m 276 365 l 369 753 l 463 365 l 276 365 m 438 1042 l 297 1207 l 124 1160 l 374 1024 l 438 1042 m 319 399 l 419 399 l 369 608 l 319 399 z "},"Á":{"ha":822,"x_min":-14,"x_max":753,"o":"m 465 204 l 272 204 l 224 0 l -14 0 l 206 918 l 532 918 l 753 0 l 514 0 l 465 204 m 233 885 l 29 33 l 197 33 l 246 239 l 492 239 l 542 33 l 710 33 l 506 885 l 233 885 m 369 988 l 268 1017 l 268 1054 l 429 1246 l 649 1186 l 649 1140 l 369 988 m 276 365 l 369 753 l 463 365 l 276 365 m 615 1160 l 442 1207 l 301 1042 l 365 1024 l 615 1160 m 319 399 l 419 399 l 369 608 l 319 399 z "},"Â":{"ha":822,"x_min":-14,"x_max":753,"o":"m 465 204 l 272 204 l 224 0 l -14 0 l 206 918 l 532 918 l 753 0 l 514 0 l 465 204 m 233 885 l 29 33 l 197 33 l 246 239 l 492 239 l 542 33 l 710 33 l 506 885 l 233 885 m 369 1097 l 229 988 l 138 1139 l 369 1256 l 600 1139 l 508 988 l 369 1097 m 276 365 l 369 753 l 463 365 l 276 365 m 369 1224 l 183 1128 l 238 1038 l 369 1140 l 500 1038 l 554 1128 l 369 1224 m 319 399 l 419 399 l 369 608 l 319 399 z "},"Ã":{"ha":822,"x_min":-14,"x_max":753,"o":"m 465 204 l 272 204 l 224 0 l -14 0 l 206 918 l 532 918 l 753 0 l 514 0 l 465 204 m 233 885 l 29 33 l 197 33 l 246 239 l 492 239 l 542 33 l 710 33 l 506 885 l 233 885 m 465 1161 l 522 1210 l 619 1175 l 547 1033 l 451 978 l 275 1038 l 218 988 l 121 1022 l 193 1164 l 289 1221 l 465 1161 m 211 1026 l 268 1075 l 447 1014 l 521 1058 l 572 1157 l 529 1172 l 472 1122 l 293 1185 l 219 1140 l 168 1042 l 211 1026 m 276 365 l 369 753 l 463 365 l 276 365 m 319 399 l 419 399 l 369 608 l 319 399 z "},"Ä":{"ha":822,"x_min":-14,"x_max":753,"o":"m 465 204 l 272 204 l 224 0 l -14 0 l 206 918 l 532 918 l 753 0 l 514 0 l 465 204 m 233 885 l 29 33 l 197 33 l 246 239 l 492 239 l 542 33 l 710 33 l 506 885 l 233 885 m 369 1039 l 317 988 l 213 988 l 156 1044 l 156 1149 l 213 1206 l 317 1206 l 369 1154 l 421 1206 l 525 1206 l 582 1149 l 582 1044 l 525 988 l 421 988 l 369 1039 m 276 365 l 369 753 l 463 365 l 276 365 m 511 1172 l 435 1172 l 397 1135 l 397 1058 l 435 1021 l 511 1021 l 549 1058 l 549 1135 l 511 1172 m 303 1172 l 226 1172 l 189 1135 l 189 1058 l 226 1021 l 303 1021 l 340 1058 l 340 1135 l 303 1172 m 319 399 l 419 399 l 369 608 l 319 399 z "},"Å":{"ha":822,"x_min":-14,"x_max":753,"o":"m 465 204 l 272 204 l 224 0 l -14 0 l 206 918 l 532 918 l 753 0 l 514 0 l 465 204 m 233 885 l 29 33 l 197 33 l 246 239 l 492 239 l 542 33 l 710 33 l 506 885 l 233 885 m 426 1254 l 504 1185 l 504 1053 l 426 985 l 313 985 l 235 1053 l 235 1185 l 313 1254 l 426 1254 m 276 365 l 369 753 l 463 365 l 276 365 m 413 1219 l 325 1219 l 268 1169 l 268 1068 l 325 1018 l 413 1018 l 471 1068 l 471 1169 l 413 1219 m 319 399 l 419 399 l 369 608 l 319 399 m 325 1169 l 414 1169 l 414 1068 l 325 1068 l 325 1169 m 358 1136 l 358 1101 l 379 1101 l 379 1136 l 358 1136 z "},"Æ":{"ha":1047,"x_min":-14,"x_max":978,"o":"m 272 204 l 224 0 l -14 0 l 206 918 l 925 918 l 975 717 l 658 717 l 658 546 l 851 546 l 851 351 l 658 351 l 658 200 l 978 200 l 921 0 l 424 0 l 424 204 l 424 204 l 272 204 m 457 33 l 457 33 l 894 33 l 933 167 l 625 167 l 625 385 l 817 385 l 817 513 l 625 513 l 625 751 l 932 751 l 899 885 l 233 885 l 29 33 l 197 33 l 246 239 l 457 239 l 457 33 m 457 365 l 457 365 l 276 365 l 368 751 l 457 751 l 457 365 m 424 717 l 396 717 l 319 399 l 424 399 l 424 399 l 424 717 z "},"Ç":{"ha":661,"x_min":0,"x_max":592,"o":"m 236 200 l 592 200 l 533 0 l 463 0 l 463 -90 l 404 -164 l 260 -187 l 219 -96 l 319 -58 l 319 -39 l 213 0 l 175 0 l 0 135 l 0 782 l 175 918 l 539 918 l 589 717 l 236 717 l 236 200 l 236 200 l 236 200 m 203 167 l 203 751 l 546 751 l 513 885 l 188 885 l 33 765 l 33 151 l 188 33 l 218 33 l 353 -15 l 353 -82 l 265 -115 l 279 -150 l 385 -133 l 429 -78 l 429 -19 l 386 33 l 508 33 l 547 167 l 203 167 l 203 167 l 203 167 z "},"È":{"ha":632,"x_min":0,"x_max":563,"o":"m 236 546 l 435 546 l 435 351 l 236 351 l 236 200 l 563 200 l 504 0 l 0 0 l 0 918 l 510 918 l 561 717 l 236 717 l 236 546 m 479 33 l 517 167 l 203 167 l 203 385 l 401 385 l 401 513 l 203 513 l 203 751 l 517 751 l 483 885 l 33 885 l 33 33 l 479 33 m 1 1140 l 1 1186 l 221 1246 l 382 1054 l 382 1017 l 281 988 l 1 1140 m 349 1042 l 208 1207 l 35 1160 l 285 1024 l 349 1042 z "},"É":{"ha":632,"x_min":0,"x_max":563,"o":"m 236 546 l 435 546 l 435 351 l 236 351 l 236 200 l 563 200 l 504 0 l 0 0 l 0 918 l 510 918 l 561 717 l 236 717 l 236 546 m 479 33 l 517 167 l 203 167 l 203 385 l 401 385 l 401 513 l 203 513 l 203 751 l 517 751 l 483 885 l 33 885 l 33 33 l 479 33 m 281 988 l 179 1017 l 179 1054 l 340 1246 l 560 1186 l 560 1140 l 281 988 m 526 1160 l 353 1207 l 213 1042 l 276 1024 l 526 1160 z "},"Ê":{"ha":632,"x_min":0,"x_max":563,"o":"m 236 717 l 561 717 l 510 918 l 0 918 l 0 0 l 504 0 l 563 200 l 236 200 l 236 351 l 435 351 l 435 546 l 236 546 l 236 717 m 33 33 l 33 885 l 483 885 l 517 751 l 203 751 l 203 513 l 401 513 l 401 385 l 203 385 l 203 167 l 517 167 l 479 33 l 33 33 m 281 1097 l 140 988 l 49 1139 l 281 1256 l 511 1139 l 419 988 l 281 1097 m 281 1224 l 94 1128 l 149 1038 l 281 1140 l 411 1038 l 465 1128 l 281 1224 z "},"Ë":{"ha":632,"x_min":0,"x_max":563,"o":"m 236 717 l 561 717 l 510 918 l 0 918 l 0 0 l 504 0 l 563 200 l 236 200 l 236 351 l 435 351 l 435 546 l 236 546 l 236 717 m 33 33 l 33 885 l 483 885 l 517 751 l 203 751 l 203 513 l 401 513 l 401 385 l 203 385 l 203 167 l 517 167 l 479 33 l 33 33 m 281 1039 l 228 988 l 124 988 l 67 1044 l 67 1149 l 124 1206 l 228 1206 l 281 1154 l 332 1206 l 436 1206 l 493 1149 l 493 1044 l 436 988 l 332 988 l 281 1039 m 422 1172 l 346 1172 l 308 1135 l 308 1058 l 346 1021 l 422 1021 l 460 1058 l 460 1135 l 422 1172 m 214 1172 l 138 1172 l 100 1135 l 100 1058 l 138 1021 l 214 1021 l 251 1058 l 251 1135 l 214 1172 z "},"Ì":{"ha":319,"x_min":-162,"x_max":236,"o":"m 0 0 l 0 918 l 236 918 l 236 0 l 0 0 m 203 885 l 33 885 l 33 33 l 203 33 l 203 885 m -162 1140 l -162 1186 l 57 1246 l 218 1054 l 218 1017 l 117 988 l -162 1140 m 185 1042 l 44 1207 l -129 1160 l 121 1024 l 185 1042 z "},"Í":{"ha":319,"x_min":0,"x_max":397,"o":"m 0 0 l 0 918 l 236 918 l 236 0 l 0 0 m 203 885 l 33 885 l 33 33 l 203 33 l 203 885 m 118 988 l 17 1017 l 17 1054 l 178 1246 l 397 1186 l 397 1140 l 118 988 m 364 1160 l 190 1207 l 50 1042 l 114 1024 l 364 1160 z "},"Î":{"ha":319,"x_min":-114,"x_max":349,"o":"m 236 0 l 236 918 l 0 918 l 0 0 l 236 0 m 203 33 l 33 33 l 33 885 l 203 885 l 203 33 m 118 1097 l -22 988 l -114 1139 l 118 1256 l 349 1139 l 257 988 l 118 1097 m 118 1224 l -68 1128 l -14 1038 l 118 1140 l 249 1038 l 303 1128 l 118 1224 z "},"Ï":{"ha":319,"x_min":-96,"x_max":331,"o":"m 236 0 l 236 918 l 0 918 l 0 0 l 236 0 m 203 33 l 33 33 l 33 885 l 203 885 l 203 33 m 118 1039 l 65 988 l -39 988 l -96 1044 l -96 1149 l -39 1206 l 65 1206 l 118 1154 l 169 1206 l 274 1206 l 331 1149 l 331 1044 l 274 988 l 169 988 l 118 1039 m 260 1172 l 183 1172 l 146 1135 l 146 1058 l 183 1021 l 260 1021 l 297 1058 l 297 1135 l 260 1172 m 51 1172 l -25 1172 l -62 1135 l -62 1058 l -25 1021 l 51 1021 l 89 1058 l 89 1135 l 51 1172 z "},"Ð":{"ha":722,"x_min":0,"x_max":639,"o":"m 464 918 l 639 782 l 639 135 l 464 0 l 0 0 l 0 918 l 0 918 l 464 918 m 203 167 l 203 167 l 203 421 l 322 421 l 322 497 l 203 497 l 203 751 l 436 751 l 436 167 l 203 167 m 33 885 l 33 885 l 33 33 l 451 33 l 606 151 l 606 765 l 451 885 l 33 885 m 403 200 l 403 717 l 236 717 l 236 532 l 357 532 l 357 386 l 236 386 l 236 200 l 236 200 l 403 200 z "},"Ñ":{"ha":764,"x_min":0,"x_max":681,"o":"m 236 425 l 457 0 l 681 0 l 681 918 l 444 918 l 444 493 l 222 918 l 0 918 l 0 0 l 236 0 l 236 425 m 647 33 l 478 33 l 203 561 l 203 33 l 33 33 l 33 885 l 201 885 l 478 356 l 478 885 l 647 885 l 647 33 m 436 1161 l 493 1210 l 590 1175 l 518 1033 l 422 978 l 246 1038 l 189 988 l 92 1022 l 164 1164 l 260 1221 l 436 1161 m 182 1026 l 239 1075 l 418 1014 l 492 1058 l 543 1157 l 500 1172 l 443 1122 l 264 1185 l 190 1140 l 139 1042 l 182 1026 z "},"Ò":{"ha":743,"x_min":0,"x_max":660,"o":"m 483 0 l 176 0 l 0 128 l 0 790 l 176 918 l 483 918 l 660 790 l 660 128 l 483 0 m 626 774 l 472 885 l 188 885 l 33 774 l 33 144 l 188 33 l 472 33 l 626 144 l 626 774 m 203 751 l 458 751 l 458 167 l 203 167 l 203 751 m 424 200 l 424 717 l 236 717 l 236 200 l 424 200 m 50 1140 l 50 1186 l 269 1246 l 431 1054 l 431 1017 l 329 988 l 50 1140 m 397 1042 l 257 1207 l 83 1160 l 333 1024 l 397 1042 z "},"Ó":{"ha":743,"x_min":0,"x_max":660,"o":"m 483 0 l 176 0 l 0 128 l 0 790 l 176 918 l 483 918 l 660 790 l 660 128 l 483 0 m 626 774 l 472 885 l 188 885 l 33 774 l 33 144 l 188 33 l 472 33 l 626 144 l 626 774 m 203 751 l 458 751 l 458 167 l 203 167 l 203 751 m 424 200 l 424 717 l 236 717 l 236 200 l 424 200 m 329 988 l 228 1017 l 228 1054 l 389 1246 l 608 1186 l 608 1140 l 329 988 m 575 1160 l 401 1207 l 261 1042 l 325 1024 l 575 1160 z "},"Ô":{"ha":743,"x_min":0,"x_max":660,"o":"m 660 128 l 660 790 l 483 918 l 176 918 l 0 790 l 0 128 l 176 0 l 483 0 l 660 128 m 626 144 l 472 33 l 188 33 l 33 144 l 33 774 l 188 885 l 472 885 l 626 774 l 626 144 m 203 167 l 458 167 l 458 751 l 203 751 l 203 167 m 236 200 l 236 717 l 424 717 l 424 200 l 236 200 m 329 1097 l 189 988 l 97 1139 l 329 1256 l 560 1139 l 468 988 l 329 1097 m 329 1224 l 143 1128 l 197 1038 l 329 1140 l 460 1038 l 514 1128 l 329 1224 z "},"Õ":{"ha":743,"x_min":0,"x_max":660,"o":"m 660 128 l 660 790 l 483 918 l 176 918 l 0 790 l 0 128 l 176 0 l 483 0 l 660 128 m 626 144 l 472 33 l 188 33 l 33 144 l 33 774 l 188 885 l 472 885 l 626 774 l 626 144 m 203 167 l 458 167 l 458 751 l 203 751 l 203 167 m 236 200 l 236 717 l 424 717 l 424 200 l 236 200 m 425 1161 l 482 1210 l 579 1175 l 507 1033 l 411 978 l 235 1038 l 178 988 l 81 1022 l 153 1164 l 249 1221 l 425 1161 m 171 1026 l 228 1075 l 407 1014 l 481 1058 l 532 1157 l 489 1172 l 432 1122 l 253 1185 l 179 1140 l 128 1042 l 171 1026 z "},"Ö":{"ha":743,"x_min":0,"x_max":660,"o":"m 660 128 l 660 790 l 483 918 l 176 918 l 0 790 l 0 128 l 176 0 l 483 0 l 660 128 m 626 144 l 472 33 l 188 33 l 33 144 l 33 774 l 188 885 l 472 885 l 626 774 l 626 144 m 203 167 l 458 167 l 458 751 l 203 751 l 203 167 m 236 200 l 236 717 l 424 717 l 424 200 l 236 200 m 329 1039 l 276 988 l 172 988 l 115 1044 l 115 1149 l 172 1206 l 276 1206 l 329 1154 l 381 1206 l 485 1206 l 542 1149 l 542 1044 l 485 988 l 381 988 l 329 1039 m 263 1172 l 186 1172 l 149 1135 l 149 1058 l 186 1021 l 263 1021 l 300 1058 l 300 1135 l 263 1172 m 471 1172 l 394 1172 l 357 1135 l 357 1058 l 394 1021 l 471 1021 l 508 1058 l 508 1135 l 471 1172 z "},"×":{"ha":608,"x_min":0,"x_max":539,"o":"m 131 156 l 0 288 l 139 425 l 0 564 l 131 694 l 269 557 l 408 694 l 539 564 l 400 425 l 539 288 l 408 156 l 269 294 l 269 294 l 131 156 m 408 204 l 408 204 l 492 288 l 353 425 l 492 564 l 408 647 l 269 508 l 131 647 l 47 564 l 186 425 l 47 288 l 131 204 l 269 342 l 408 204 z "},"Ø":{"ha":743,"x_min":0,"x_max":660,"o":"m 483 0 l 176 0 l 0 128 l 0 790 l 176 918 l 483 918 l 660 790 l 660 128 l 660 128 l 483 0 m 210 167 l 210 167 l 458 597 l 458 167 l 210 167 m 450 751 l 450 751 l 203 321 l 203 751 l 450 751 m 626 144 l 626 144 l 626 774 l 472 885 l 188 885 l 33 774 l 33 144 l 188 33 l 472 33 l 626 144 m 236 717 l 236 447 l 392 717 l 392 717 l 236 717 m 424 200 l 424 471 l 268 200 l 268 200 l 424 200 z "},"Ù":{"ha":729,"x_min":0,"x_max":646,"o":"m 236 200 l 410 200 l 410 918 l 646 918 l 646 128 l 469 0 l 176 0 l 0 128 l 0 918 l 236 918 l 236 200 m 458 33 l 613 144 l 613 885 l 443 885 l 443 167 l 203 167 l 203 885 l 33 885 l 33 144 l 188 33 l 458 33 m 43 1140 l 43 1186 l 263 1246 l 424 1054 l 424 1017 l 322 988 l 43 1140 m 390 1042 l 250 1207 l 76 1160 l 326 1024 l 390 1042 z "},"Ú":{"ha":729,"x_min":0,"x_max":646,"o":"m 236 200 l 410 200 l 410 918 l 646 918 l 646 128 l 469 0 l 176 0 l 0 128 l 0 918 l 236 918 l 236 200 m 458 33 l 613 144 l 613 885 l 443 885 l 443 167 l 203 167 l 203 885 l 33 885 l 33 144 l 188 33 l 458 33 m 322 988 l 221 1017 l 221 1054 l 382 1246 l 601 1186 l 601 1140 l 322 988 m 568 1160 l 394 1207 l 254 1042 l 318 1024 l 568 1160 z "},"Û":{"ha":729,"x_min":0,"x_max":646,"o":"m 236 200 l 410 200 l 410 918 l 646 918 l 646 128 l 469 0 l 176 0 l 0 128 l 0 918 l 236 918 l 236 200 m 458 33 l 613 144 l 613 885 l 443 885 l 443 167 l 203 167 l 203 885 l 33 885 l 33 144 l 188 33 l 458 33 m 322 1097 l 182 988 l 90 1139 l 322 1256 l 553 1139 l 461 988 l 322 1097 m 322 1224 l 136 1128 l 190 1038 l 322 1140 l 453 1038 l 507 1128 l 322 1224 z "},"Ü":{"ha":729,"x_min":0,"x_max":646,"o":"m 236 200 l 410 200 l 410 918 l 646 918 l 646 128 l 469 0 l 176 0 l 0 128 l 0 918 l 236 918 l 236 200 m 458 33 l 613 144 l 613 885 l 443 885 l 443 167 l 203 167 l 203 885 l 33 885 l 33 144 l 188 33 l 458 33 m 322 1039 l 269 988 l 165 988 l 108 1044 l 108 1149 l 165 1206 l 269 1206 l 322 1154 l 374 1206 l 478 1206 l 535 1149 l 535 1044 l 478 988 l 374 988 l 322 1039 m 464 1172 l 388 1172 l 350 1135 l 350 1058 l 388 1021 l 464 1021 l 501 1058 l 501 1135 l 464 1172 m 256 1172 l 179 1172 l 142 1135 l 142 1058 l 179 1021 l 256 1021 l 293 1058 l 293 1135 l 256 1172 z "},"Ý":{"ha":829,"x_min":-14,"x_max":760,"o":"m -14 918 l 231 918 l 372 631 l 515 918 l 760 918 l 490 389 l 490 0 l 254 0 l 254 389 l -14 918 m 457 33 l 457 396 l 704 885 l 536 885 l 372 556 l 210 885 l 40 885 l 289 396 l 289 33 l 457 33 m 372 986 l 271 1015 l 271 1053 l 432 1244 l 651 1185 l 651 1139 l 372 986 m 618 1158 l 444 1206 l 304 1040 l 368 1022 l 618 1158 z "},"Þ":{"ha":708,"x_min":0,"x_max":625,"o":"m 450 763 l 625 628 l 625 290 l 450 154 l 236 154 l 236 0 l 0 0 l 0 918 l 236 918 l 236 763 l 236 763 l 450 763 m 203 33 l 203 33 l 203 189 l 439 189 l 592 307 l 592 611 l 439 729 l 203 729 l 203 885 l 33 885 l 33 33 l 203 33 m 203 596 l 203 596 l 424 596 l 424 322 l 203 322 l 203 596 m 236 356 l 390 356 l 390 563 l 236 563 l 236 563 l 236 356 z "},"ß":{"ha":696,"x_min":0,"x_max":613,"o":"m 236 717 l 236 200 l 376 200 l 376 417 l 269 417 l 269 618 l 369 618 l 369 717 l 236 717 l 236 717 l 236 717 m 303 450 l 410 450 l 410 167 l 264 167 l 303 33 l 425 33 l 578 151 l 578 465 l 497 524 l 572 575 l 572 765 l 418 885 l 33 885 l 33 33 l 203 33 l 203 751 l 403 751 l 403 583 l 303 583 l 303 450 l 303 450 l 303 450 m 236 144 l 236 0 l 0 0 l 0 918 l 429 918 l 606 782 l 606 558 l 556 524 l 613 483 l 613 135 l 436 0 l 278 0 l 236 144 l 236 144 l 236 144 z "},"à":{"ha":788,"x_min":-14,"x_max":718,"o":"m 267 182 l 224 0 l -14 0 l 190 851 l 514 851 l 718 0 l 481 0 l 438 182 l 267 182 m 240 215 l 464 215 l 507 33 l 676 33 l 488 818 l 217 818 l 29 33 l 197 33 l 240 215 m 74 1071 l 74 1117 l 293 1176 l 454 985 l 454 947 l 353 918 l 74 1071 m 433 342 l 271 342 l 353 682 l 433 342 m 421 972 l 281 1138 l 107 1090 l 357 954 l 421 972 m 314 376 l 392 376 l 353 538 l 314 376 z "},"á":{"ha":788,"x_min":-14,"x_max":718,"o":"m 267 182 l 224 0 l -14 0 l 190 851 l 514 851 l 718 0 l 481 0 l 438 182 l 267 182 m 240 215 l 464 215 l 507 33 l 676 33 l 488 818 l 217 818 l 29 33 l 197 33 l 240 215 m 353 918 l 251 947 l 251 985 l 413 1176 l 632 1117 l 632 1071 l 353 918 m 433 342 l 271 342 l 353 682 l 433 342 m 599 1090 l 425 1138 l 285 972 l 349 954 l 599 1090 m 314 376 l 392 376 l 353 538 l 314 376 z "},"â":{"ha":788,"x_min":-14,"x_max":718,"o":"m 438 182 l 481 0 l 718 0 l 514 851 l 190 851 l -14 0 l 224 0 l 267 182 l 438 182 m 197 33 l 29 33 l 217 818 l 488 818 l 676 33 l 507 33 l 464 215 l 240 215 l 197 33 m 353 1028 l 213 918 l 121 1069 l 353 1186 l 583 1069 l 492 918 l 353 1028 m 353 1154 l 167 1058 l 221 968 l 353 1071 l 483 968 l 538 1058 l 353 1154 m 353 682 l 271 342 l 433 342 l 353 682 m 353 538 l 392 376 l 314 376 l 353 538 z "},"ã":{"ha":788,"x_min":-14,"x_max":718,"o":"m 438 182 l 481 0 l 718 0 l 514 851 l 190 851 l -14 0 l 224 0 l 267 182 l 438 182 m 197 33 l 29 33 l 217 818 l 488 818 l 676 33 l 507 33 l 464 215 l 240 215 l 197 33 m 449 1099 l 506 1147 l 603 1113 l 531 971 l 435 915 l 258 975 l 201 925 l 104 960 l 176 1101 l 272 1158 l 449 1099 m 194 964 l 251 1013 l 431 951 l 504 996 l 556 1094 l 513 1110 l 456 1060 l 276 1122 l 203 1078 l 151 979 l 194 964 m 353 682 l 271 342 l 433 342 l 353 682 m 353 538 l 392 376 l 314 376 l 353 538 z "},"ä":{"ha":788,"x_min":-14,"x_max":718,"o":"m 438 182 l 481 0 l 718 0 l 514 851 l 190 851 l -14 0 l 224 0 l 267 182 l 438 182 m 197 33 l 29 33 l 217 818 l 488 818 l 676 33 l 507 33 l 464 215 l 240 215 l 197 33 m 353 969 l 300 918 l 196 918 l 139 975 l 139 1079 l 196 1136 l 300 1136 l 353 1085 l 404 1136 l 508 1136 l 565 1079 l 565 975 l 508 918 l 404 918 l 353 969 m 353 682 l 271 342 l 433 342 l 353 682 m 494 1103 l 418 1103 l 381 1065 l 381 989 l 418 951 l 494 951 l 532 989 l 532 1065 l 494 1103 m 286 1103 l 210 1103 l 172 1065 l 172 989 l 210 951 l 286 951 l 324 989 l 324 1065 l 286 1103 m 353 538 l 392 376 l 314 376 l 353 538 z "},"å":{"ha":788,"x_min":-14,"x_max":718,"o":"m 438 182 l 481 0 l 718 0 l 514 851 l 190 851 l -14 0 l 224 0 l 267 182 l 438 182 m 197 33 l 29 33 l 217 818 l 488 818 l 676 33 l 507 33 l 464 215 l 240 215 l 197 33 m 410 1188 l 488 1118 l 488 986 l 410 918 l 296 918 l 218 986 l 218 1118 l 296 1188 l 410 1188 m 396 1153 l 308 1153 l 251 1103 l 251 1001 l 308 951 l 396 951 l 454 1001 l 454 1103 l 396 1153 m 353 682 l 271 342 l 433 342 l 353 682 m 308 1103 l 397 1103 l 397 1001 l 308 1001 l 308 1103 m 353 538 l 392 376 l 314 376 l 353 538 m 342 1069 l 342 1035 l 363 1035 l 363 1069 l 342 1069 z "},"æ":{"ha":983,"x_min":-14,"x_max":914,"o":"m 615 522 l 786 522 l 786 329 l 615 329 l 615 200 l 914 200 l 856 0 l 379 0 l 379 182 l 267 182 l 224 0 l -14 0 l 190 851 l 861 851 l 911 650 l 615 650 l 615 650 l 615 522 m 197 33 l 197 33 l 240 215 l 413 215 l 413 33 l 831 33 l 869 167 l 581 167 l 581 363 l 753 363 l 753 489 l 581 489 l 581 685 l 868 685 l 835 818 l 217 818 l 29 33 l 197 33 m 353 685 l 353 685 l 413 685 l 413 342 l 271 342 l 353 685 m 314 376 l 379 376 l 379 650 l 379 650 l 314 376 z "},"ç":{"ha":621,"x_min":0,"x_max":551,"o":"m 246 0 l 175 0 l 0 135 l 0 715 l 175 851 l 499 851 l 549 650 l 236 650 l 236 200 l 551 200 l 493 0 l 446 0 l 446 -90 l 386 -164 l 242 -187 l 203 -96 l 301 -58 l 301 -35 l 246 0 l 246 0 l 246 0 m 256 33 l 336 -15 l 336 -82 l 247 -115 l 263 -150 l 368 -133 l 413 -78 l 413 -19 l 369 33 l 468 33 l 507 167 l 203 167 l 203 685 l 506 685 l 472 818 l 188 818 l 33 700 l 33 151 l 188 33 l 256 33 l 256 33 l 256 33 z "},"è":{"ha":604,"x_min":0,"x_max":535,"o":"m 236 522 l 407 522 l 407 329 l 236 329 l 236 200 l 535 200 l 476 0 l 0 0 l 0 851 l 482 851 l 532 650 l 236 650 l 236 522 m 451 33 l 490 167 l 203 167 l 203 363 l 374 363 l 374 489 l 203 489 l 203 685 l 489 685 l 456 818 l 33 818 l 33 33 l 451 33 m 0 1071 l 0 1117 l 207 1176 l 368 985 l 368 947 l 267 918 l 0 1071 m 335 972 l 194 1138 l 33 1090 l 271 954 l 335 972 z "},"é":{"ha":615,"x_min":0,"x_max":546,"o":"m 236 522 l 407 522 l 407 329 l 236 329 l 236 200 l 535 200 l 476 0 l 0 0 l 0 851 l 482 851 l 532 650 l 236 650 l 236 522 m 451 33 l 490 167 l 203 167 l 203 363 l 374 363 l 374 489 l 203 489 l 203 685 l 489 685 l 456 818 l 33 818 l 33 33 l 451 33 m 267 917 l 165 946 l 165 983 l 326 1175 l 546 1115 l 546 1069 l 267 917 m 513 1089 l 339 1136 l 199 971 l 263 953 l 513 1089 z "},"ê":{"ha":604,"x_min":0,"x_max":535,"o":"m 236 650 l 532 650 l 482 851 l 0 851 l 0 0 l 476 0 l 535 200 l 236 200 l 236 329 l 407 329 l 407 522 l 236 522 l 236 650 m 33 33 l 33 818 l 456 818 l 489 685 l 203 685 l 203 489 l 374 489 l 374 363 l 203 363 l 203 167 l 490 167 l 451 33 l 33 33 m 267 1022 l 126 913 l 35 1064 l 267 1181 l 497 1064 l 406 913 l 267 1022 m 267 1149 l 81 1053 l 135 963 l 267 1065 l 397 963 l 451 1053 l 267 1149 z "},"ë":{"ha":604,"x_min":0,"x_max":535,"o":"m 236 650 l 532 650 l 482 851 l 0 851 l 0 0 l 476 0 l 535 200 l 236 200 l 236 329 l 407 329 l 407 522 l 236 522 l 236 650 m 33 33 l 33 818 l 456 818 l 489 685 l 203 685 l 203 489 l 374 489 l 374 363 l 203 363 l 203 167 l 490 167 l 451 33 l 33 33 m 267 969 l 214 918 l 110 918 l 53 975 l 53 1079 l 110 1136 l 214 1136 l 267 1085 l 318 1136 l 422 1136 l 479 1079 l 479 975 l 422 918 l 318 918 l 267 969 m 408 1103 l 332 1103 l 294 1065 l 294 989 l 332 951 l 408 951 l 446 989 l 446 1065 l 408 1103 m 200 1103 l 124 1103 l 86 1065 l 86 989 l 124 951 l 200 951 l 238 989 l 238 1065 l 200 1103 z "},"ì":{"ha":319,"x_min":-161,"x_max":236,"o":"m 0 0 l 0 851 l 236 851 l 236 0 l 0 0 m 203 818 l 33 818 l 33 33 l 203 33 l 203 818 m -161 1071 l -161 1117 l 58 1176 l 219 985 l 219 947 l 118 918 l -161 1071 m 186 972 l 46 1138 l -128 1090 l 122 954 l 186 972 z "},"í":{"ha":319,"x_min":0,"x_max":397,"o":"m 0 0 l 0 851 l 236 851 l 236 0 l 0 0 m 203 818 l 33 818 l 33 33 l 203 33 l 203 818 m 118 918 l 17 947 l 17 985 l 178 1176 l 397 1117 l 397 1071 l 118 918 m 364 1090 l 190 1138 l 50 972 l 114 954 l 364 1090 z "},"î":{"ha":319,"x_min":-114,"x_max":349,"o":"m 236 0 l 236 851 l 0 851 l 0 0 l 236 0 m 203 33 l 33 33 l 33 818 l 203 818 l 203 33 m 118 1022 l -22 913 l -114 1064 l 118 1181 l 349 1064 l 257 913 l 118 1022 m 118 1149 l -68 1053 l -14 963 l 118 1065 l 249 963 l 303 1053 l 118 1149 z "},"ï":{"ha":319,"x_min":-96,"x_max":331,"o":"m 236 0 l 236 851 l 0 851 l 0 0 l 236 0 m 203 33 l 33 33 l 33 818 l 203 818 l 203 33 m 118 969 l 65 918 l -39 918 l -96 975 l -96 1079 l -39 1136 l 65 1136 l 118 1085 l 169 1136 l 274 1136 l 331 1079 l 331 975 l 274 918 l 169 918 l 118 969 m 260 1103 l 183 1103 l 146 1065 l 146 989 l 183 951 l 260 951 l 297 989 l 297 1065 l 260 1103 m 51 1103 l -25 1103 l -62 1065 l -62 989 l -25 951 l 51 951 l 89 989 l 89 1065 l 51 1103 z "},"ð":{"ha":689,"x_min":0,"x_max":606,"o":"m 429 851 l 606 715 l 606 135 l 429 0 l 0 0 l 0 851 l 0 851 l 429 851 m 203 167 l 203 167 l 203 388 l 303 388 l 303 464 l 203 464 l 203 685 l 403 685 l 403 167 l 203 167 m 33 818 l 33 818 l 33 33 l 418 33 l 572 151 l 572 700 l 418 818 l 33 818 m 369 200 l 369 650 l 236 650 l 236 499 l 336 499 l 336 353 l 236 353 l 236 200 l 236 200 l 369 200 z "},"ñ":{"ha":724,"x_min":0,"x_max":640,"o":"m 404 500 l 222 851 l 0 851 l 0 0 l 236 0 l 236 351 l 417 0 l 640 0 l 640 851 l 404 851 l 404 500 m 203 33 l 33 33 l 33 818 l 203 818 l 438 361 l 438 818 l 606 818 l 606 33 l 438 33 l 203 490 l 203 33 m 415 1092 l 472 1140 l 569 1106 l 497 964 l 401 908 l 225 968 l 168 918 l 71 953 l 143 1094 l 239 1151 l 415 1092 m 161 957 l 218 1006 l 397 944 l 471 989 l 522 1088 l 479 1103 l 422 1053 l 243 1115 l 169 1071 l 118 972 l 161 957 z "},"ò":{"ha":703,"x_min":0,"x_max":619,"o":"m 443 0 l 176 0 l 0 128 l 0 724 l 176 851 l 443 851 l 619 724 l 619 128 l 443 0 m 586 707 l 432 818 l 188 818 l 33 707 l 33 144 l 188 33 l 432 33 l 586 144 l 586 707 m 203 685 l 418 685 l 418 167 l 203 167 l 203 685 m 383 200 l 383 650 l 236 650 l 236 200 l 383 200 m 31 1069 l 31 1115 l 250 1175 l 411 983 l 411 946 l 310 917 l 31 1069 m 378 971 l 238 1136 l 64 1089 l 314 953 l 378 971 z "},"ó":{"ha":703,"x_min":0,"x_max":619,"o":"m 443 0 l 176 0 l 0 128 l 0 724 l 176 851 l 443 851 l 619 724 l 619 128 l 443 0 m 586 707 l 432 818 l 188 818 l 33 707 l 33 144 l 188 33 l 432 33 l 586 144 l 586 707 m 203 685 l 418 685 l 418 167 l 203 167 l 203 685 m 383 200 l 383 650 l 236 650 l 236 200 l 383 200 m 310 917 l 208 946 l 208 983 l 369 1175 l 589 1115 l 589 1069 l 310 917 m 556 1089 l 382 1136 l 242 971 l 306 953 l 556 1089 z "},"ô":{"ha":703,"x_min":0,"x_max":619,"o":"m 619 128 l 619 724 l 443 851 l 176 851 l 0 724 l 0 128 l 176 0 l 443 0 l 619 128 m 586 144 l 432 33 l 188 33 l 33 144 l 33 707 l 188 818 l 432 818 l 586 707 l 586 144 m 203 167 l 418 167 l 418 685 l 203 685 l 203 167 m 310 1022 l 169 913 l 78 1064 l 310 1181 l 540 1064 l 449 913 l 310 1022 m 236 200 l 236 650 l 383 650 l 383 200 l 236 200 m 310 1149 l 124 1053 l 178 963 l 310 1065 l 440 963 l 494 1053 l 310 1149 z "},"õ":{"ha":703,"x_min":0,"x_max":619,"o":"m 619 128 l 619 724 l 443 851 l 176 851 l 0 724 l 0 128 l 176 0 l 443 0 l 619 128 m 586 144 l 432 33 l 188 33 l 33 144 l 33 707 l 188 818 l 432 818 l 586 707 l 586 144 m 203 167 l 418 167 l 418 685 l 203 685 l 203 167 m 406 1092 l 463 1140 l 560 1106 l 488 964 l 392 908 l 215 968 l 158 918 l 61 953 l 133 1094 l 229 1151 l 406 1092 m 236 200 l 236 650 l 383 650 l 383 200 l 236 200 m 151 957 l 208 1006 l 388 944 l 461 989 l 513 1088 l 469 1103 l 413 1053 l 233 1115 l 160 1071 l 108 972 l 151 957 z "},"ö":{"ha":703,"x_min":0,"x_max":619,"o":"m 619 128 l 619 724 l 443 851 l 176 851 l 0 724 l 0 128 l 176 0 l 443 0 l 619 128 m 586 144 l 432 33 l 188 33 l 33 144 l 33 707 l 188 818 l 432 818 l 586 707 l 586 144 m 203 167 l 418 167 l 418 685 l 203 685 l 203 167 m 310 969 l 257 918 l 153 918 l 96 975 l 96 1079 l 153 1136 l 257 1136 l 310 1085 l 361 1136 l 465 1136 l 522 1079 l 522 975 l 465 918 l 361 918 l 310 969 m 236 200 l 236 650 l 383 650 l 383 200 l 236 200 m 243 1103 l 167 1103 l 129 1065 l 129 989 l 167 951 l 243 951 l 281 989 l 281 1065 l 243 1103 m 451 1103 l 375 1103 l 338 1065 l 338 989 l 375 951 l 451 951 l 489 989 l 489 1065 l 451 1103 z "},"÷":{"ha":675,"x_min":0,"x_max":606,"o":"m 185 557 l 185 671 l 247 732 l 358 732 l 421 671 l 421 557 l 381 518 l 606 518 l 606 333 l 381 333 l 421 294 l 421 181 l 358 119 l 247 119 l 185 181 l 185 294 l 225 333 l 0 333 l 0 518 l 225 518 l 225 518 l 185 557 m 33 485 l 33 485 l 33 367 l 572 367 l 572 485 l 33 485 m 261 321 l 218 279 l 218 194 l 261 153 l 344 153 l 388 194 l 388 279 l 344 321 l 344 321 l 261 321 m 261 699 l 218 657 l 218 571 l 261 529 l 344 529 l 388 571 l 388 657 l 344 699 l 344 699 l 261 699 z "},"ø":{"ha":703,"x_min":0,"x_max":619,"o":"m 443 0 l 176 0 l 0 128 l 0 724 l 176 851 l 443 851 l 619 724 l 619 128 l 619 128 l 443 0 m 210 167 l 210 167 l 418 528 l 418 167 l 210 167 m 411 685 l 411 685 l 203 324 l 203 685 l 411 685 m 586 144 l 586 144 l 586 707 l 432 818 l 188 818 l 33 707 l 33 144 l 188 33 l 432 33 l 586 144 m 236 650 l 236 449 l 353 650 l 353 650 l 236 650 m 383 200 l 383 401 l 267 200 l 267 200 l 383 200 z "},"ù":{"ha":696,"x_min":0,"x_max":613,"o":"m 236 200 l 376 200 l 376 851 l 613 851 l 613 128 l 436 0 l 176 0 l 0 128 l 0 851 l 236 851 l 236 200 m 425 33 l 578 144 l 578 818 l 410 818 l 410 167 l 203 167 l 203 818 l 33 818 l 33 144 l 188 33 l 425 33 m 26 1071 l 26 1117 l 246 1176 l 407 985 l 407 947 l 306 918 l 26 1071 m 374 972 l 233 1138 l 60 1090 l 310 954 l 374 972 z "},"ú":{"ha":696,"x_min":0,"x_max":613,"o":"m 236 200 l 376 200 l 376 851 l 613 851 l 613 128 l 436 0 l 176 0 l 0 128 l 0 851 l 236 851 l 236 200 m 425 33 l 578 144 l 578 818 l 410 818 l 410 167 l 203 167 l 203 818 l 33 818 l 33 144 l 188 33 l 425 33 m 307 917 l 206 946 l 206 983 l 367 1175 l 586 1115 l 586 1069 l 307 917 m 553 1089 l 379 1136 l 239 971 l 303 953 l 553 1089 z "},"û":{"ha":696,"x_min":0,"x_max":613,"o":"m 236 200 l 376 200 l 376 851 l 613 851 l 613 128 l 436 0 l 176 0 l 0 128 l 0 851 l 236 851 l 236 200 m 425 33 l 578 144 l 578 818 l 410 818 l 410 167 l 203 167 l 203 818 l 33 818 l 33 144 l 188 33 l 425 33 m 307 1022 l 167 913 l 75 1064 l 307 1181 l 538 1064 l 446 913 l 307 1022 m 307 1149 l 121 1053 l 175 963 l 307 1065 l 438 963 l 492 1053 l 307 1149 z "},"ü":{"ha":696,"x_min":0,"x_max":613,"o":"m 236 200 l 376 200 l 376 851 l 613 851 l 613 128 l 436 0 l 176 0 l 0 128 l 0 851 l 236 851 l 236 200 m 425 33 l 578 144 l 578 818 l 410 818 l 410 167 l 203 167 l 203 818 l 33 818 l 33 144 l 188 33 l 425 33 m 307 969 l 254 918 l 150 918 l 93 975 l 93 1079 l 150 1136 l 254 1136 l 307 1085 l 358 1136 l 463 1136 l 519 1079 l 519 975 l 463 918 l 358 918 l 307 969 m 449 1103 l 372 1103 l 335 1065 l 335 989 l 372 951 l 449 951 l 486 989 l 486 1065 l 449 1103 m 240 1103 l 164 1103 l 126 1065 l 126 989 l 164 951 l 240 951 l 278 989 l 278 1065 l 240 1103 z "},"ý":{"ha":789,"x_min":-14,"x_max":719,"o":"m -14 851 l 231 851 l 353 594 l 475 851 l 719 851 l 471 351 l 471 0 l 235 0 l 235 351 l -14 851 m 268 33 l 436 33 l 436 360 l 664 818 l 496 818 l 353 515 l 208 818 l 40 818 l 268 360 l 268 33 m 353 917 l 251 946 l 251 983 l 413 1175 l 632 1115 l 632 1069 l 353 917 m 599 1089 l 425 1136 l 285 971 l 349 953 l 599 1089 z "},"þ":{"ha":682,"x_min":0,"x_max":599,"o":"m 422 675 l 599 539 l 599 246 l 422 110 l 236 110 l 236 -133 l 0 -133 l 0 918 l 236 918 l 236 675 l 236 675 l 422 675 m 203 -100 l 203 -100 l 203 143 l 411 143 l 565 263 l 565 522 l 411 640 l 203 640 l 203 885 l 33 885 l 33 -100 l 203 -100 m 203 276 l 203 276 l 203 507 l 396 507 l 396 276 l 203 276 m 363 311 l 363 474 l 236 474 l 236 311 l 236 311 l 363 311 z "},"ÿ":{"ha":789,"x_min":-14,"x_max":719,"o":"m 235 351 l 235 0 l 471 0 l 471 351 l 719 851 l 475 851 l 353 594 l 231 851 l -14 851 l 235 351 m 268 360 l 40 818 l 208 818 l 353 515 l 496 818 l 664 818 l 436 360 l 436 33 l 268 33 l 268 360 m 353 969 l 300 918 l 196 918 l 139 975 l 139 1079 l 196 1136 l 300 1136 l 353 1085 l 404 1136 l 508 1136 l 565 1079 l 565 975 l 508 918 l 404 918 l 353 969 m 494 1103 l 418 1103 l 381 1065 l 381 989 l 418 951 l 494 951 l 532 989 l 532 1065 l 494 1103 m 286 1103 l 210 1103 l 172 1065 l 172 989 l 210 951 l 286 951 l 324 989 l 324 1065 l 286 1103 z "},"ı":{"ha":319,"x_min":0,"x_max":236,"o":"m 0 0 l 0 851 l 236 851 l 236 0 l 236 0 l 0 0 m 203 33 l 203 33 l 203 818 l 33 818 l 33 33 l 203 33 z "},"Ł":{"ha":618,"x_min":0,"x_max":549,"o":"m 333 631 l 394 499 l 236 425 l 236 200 l 549 200 l 492 0 l 0 0 l 0 918 l 236 918 l 236 585 l 236 585 l 333 631 m 33 33 l 33 33 l 465 33 l 504 167 l 203 167 l 203 447 l 350 515 l 317 586 l 203 532 l 203 885 l 33 885 l 33 33 z "},"ł":{"ha":599,"x_min":0,"x_max":529,"o":"m 333 597 l 394 465 l 236 392 l 236 200 l 529 200 l 471 0 l 0 0 l 0 851 l 236 851 l 236 551 l 236 551 l 333 597 m 33 33 l 33 33 l 446 33 l 485 167 l 203 167 l 203 414 l 350 482 l 317 553 l 203 499 l 203 818 l 33 818 l 33 33 z "},"Œ":{"ha":1056,"x_min":0,"x_max":986,"o":"m 660 546 l 858 546 l 858 351 l 660 351 l 660 200 l 986 200 l 928 0 l 176 0 l 0 128 l 0 790 l 176 918 l 933 918 l 983 717 l 660 717 l 660 717 l 660 546 m 458 167 l 458 167 l 203 167 l 203 751 l 458 751 l 458 167 m 907 885 l 907 885 l 522 885 l 522 849 l 472 885 l 188 885 l 33 774 l 33 144 l 188 33 l 472 33 l 522 69 l 522 33 l 903 33 l 942 167 l 626 167 l 626 385 l 825 385 l 825 513 l 626 513 l 626 751 l 940 751 l 907 885 m 424 717 l 236 717 l 236 200 l 424 200 l 424 200 l 424 717 z "},"œ":{"ha":988,"x_min":0,"x_max":918,"o":"m 619 522 l 792 522 l 792 329 l 619 329 l 619 200 l 918 200 l 861 0 l 176 0 l 0 128 l 0 724 l 176 851 l 865 851 l 915 650 l 619 650 l 619 650 l 619 522 m 203 167 l 203 167 l 203 685 l 418 685 l 418 167 l 203 167 m 839 818 l 839 818 l 481 818 l 481 782 l 432 818 l 188 818 l 33 707 l 33 144 l 188 33 l 432 33 l 481 69 l 481 33 l 836 33 l 874 167 l 586 167 l 586 363 l 758 363 l 758 489 l 586 489 l 586 685 l 872 685 l 839 818 m 383 200 l 383 650 l 236 650 l 236 200 l 236 200 l 383 200 z "},"Š":{"ha":682,"x_min":0,"x_max":599,"o":"m 236 717 l 565 717 l 515 918 l 175 918 l 0 782 l 0 496 l 175 360 l 363 360 l 363 200 l 0 200 l 58 0 l 422 0 l 599 135 l 599 425 l 422 561 l 236 561 l 236 717 m 489 885 l 522 751 l 203 751 l 203 526 l 411 526 l 565 408 l 565 151 l 411 33 l 83 33 l 44 167 l 396 167 l 396 393 l 188 393 l 33 513 l 33 765 l 188 885 l 489 885 m 438 1256 l 529 1104 l 299 988 l 67 1104 l 158 1256 l 299 1146 l 438 1256 m 483 1115 l 429 1206 l 299 1103 l 167 1206 l 113 1115 l 299 1019 l 483 1115 z "},"š":{"ha":642,"x_min":0,"x_max":558,"o":"m 236 650 l 525 650 l 474 851 l 175 851 l 0 715 l 0 472 l 175 336 l 322 336 l 322 200 l 0 200 l 58 0 l 382 0 l 558 135 l 558 401 l 382 538 l 236 538 l 236 650 m 449 818 l 482 685 l 203 685 l 203 504 l 371 504 l 525 386 l 525 151 l 371 33 l 83 33 l 44 167 l 356 167 l 356 371 l 188 371 l 33 489 l 33 700 l 188 818 l 449 818 m 418 1181 l 510 1029 l 279 913 l 47 1029 l 139 1181 l 279 1071 l 418 1181 m 464 1040 l 410 1131 l 279 1028 l 147 1131 l 93 1040 l 279 944 l 464 1040 z "},"Ÿ":{"ha":829,"x_min":-14,"x_max":760,"o":"m 254 389 l 254 0 l 490 0 l 490 389 l 760 918 l 515 918 l 372 631 l 231 918 l -14 918 l 254 389 m 289 33 l 289 396 l 40 885 l 210 885 l 372 556 l 536 885 l 704 885 l 457 396 l 457 33 l 289 33 m 372 1039 l 319 988 l 215 988 l 158 1044 l 158 1149 l 215 1206 l 319 1206 l 372 1154 l 424 1206 l 528 1206 l 585 1149 l 585 1044 l 528 988 l 424 988 l 372 1039 m 514 1172 l 438 1172 l 400 1135 l 400 1058 l 438 1021 l 514 1021 l 551 1058 l 551 1135 l 514 1172 m 306 1172 l 229 1172 l 192 1135 l 192 1058 l 229 1021 l 306 1021 l 343 1058 l 343 1135 l 306 1172 z "},"Ž":{"ha":769,"x_min":-14,"x_max":700,"o":"m 333 200 l 700 918 l 81 918 l 22 717 l 353 717 l -14 0 l 642 0 l 700 200 l 333 200 m 646 885 l 278 167 l 656 167 l 617 33 l 42 33 l 408 751 l 67 751 l 106 885 l 646 885 m 482 1254 l 574 1103 l 343 986 l 111 1103 l 203 1254 l 343 1144 l 482 1254 m 528 1114 l 474 1204 l 343 1101 l 211 1204 l 157 1114 l 343 1018 l 528 1114 z "},"ž":{"ha":735,"x_min":-14,"x_max":665,"o":"m 333 200 l 665 851 l 68 851 l 10 650 l 318 650 l -14 0 l 607 0 l 665 200 l 333 200 m 610 818 l 278 167 l 621 167 l 582 33 l 42 33 l 374 685 l 54 685 l 93 818 l 610 818 m 464 1181 l 557 1029 l 325 913 l 93 1029 l 185 1181 l 325 1071 l 464 1181 m 510 1040 l 456 1131 l 325 1028 l 193 1131 l 139 1040 l 325 944 l 510 1040 z "},"ƒ":{"ha":489,"x_min":0,"x_max":406,"o":"m 282 760 l 282 706 l 386 706 l 386 554 l 282 554 l 282 -46 l 161 -133 l 0 -133 l 0 11 l 104 11 l 124 25 l 124 554 l 21 554 l 21 706 l 124 706 l 124 829 l 246 918 l 406 918 l 406 774 l 301 774 l 301 774 l 282 760 m 372 885 l 372 885 l 257 885 l 157 813 l 157 672 l 54 672 l 54 588 l 157 588 l 157 8 l 115 -22 l 33 -22 l 33 -100 l 150 -100 l 249 -28 l 249 588 l 353 588 l 353 672 l 249 672 l 249 776 l 290 807 l 372 807 l 372 885 z "},"ˆ":{"ha":532,"x_min":0,"x_max":463,"o":"m 232 1007 l 92 897 l 0 1049 l 232 1165 l 463 1049 l 371 897 l 232 1007 m 232 1133 l 46 1038 l 100 947 l 232 1050 l 363 947 l 417 1038 l 232 1133 z "},"ˇ":{"ha":532,"x_min":0,"x_max":463,"o":"m 371 1165 l 463 1014 l 232 897 l 0 1014 l 92 1165 l 232 1056 l 371 1165 m 417 1025 l 363 1115 l 232 1013 l 100 1115 l 46 1025 l 232 929 l 417 1025 z "},"˘":{"ha":492,"x_min":0,"x_max":422,"o":"m 333 1142 l 422 1104 l 351 964 l 260 911 l 163 911 l 71 964 l 0 1104 l 89 1142 l 174 1061 l 249 1061 l 249 1061 l 333 1142 m 263 1028 l 263 1028 l 160 1028 l 82 1103 l 46 1088 l 97 989 l 171 944 l 251 944 l 325 989 l 376 1088 l 340 1103 l 263 1028 z "},"˙":{"ha":289,"x_min":0,"x_max":219,"o":"m 161 943 l 219 886 l 219 782 l 161 725 l 57 725 l 0 782 l 0 886 l 57 943 l 161 943 l 161 943 l 161 943 m 147 910 l 71 910 l 33 872 l 33 796 l 71 758 l 147 758 l 185 796 l 185 872 l 147 910 l 147 910 l 147 910 z "},"˚":{"ha":339,"x_min":0,"x_max":269,"o":"m 192 1181 l 269 1111 l 269 979 l 192 911 l 78 911 l 0 979 l 0 1111 l 78 1181 l 192 1181 l 192 1181 l 192 1181 m 178 1146 l 90 1146 l 33 1096 l 33 994 l 90 944 l 178 944 l 236 994 l 236 1096 l 178 1146 l 178 1146 l 178 1146 m 90 1096 l 179 1096 l 179 994 l 90 994 l 90 1096 l 90 1096 l 90 1096 m 124 1063 l 124 1028 l 144 1028 l 144 1063 l 124 1063 l 124 1063 l 124 1063 z "},"˛":{"ha":313,"x_min":0,"x_max":243,"o":"m 144 -62 l 144 -62 l 243 -99 l 204 -190 l 60 -168 l 0 -93 l 0 22 l 60 97 l 204 121 l 243 28 l 144 -8 l 144 -62 m 111 -86 l 111 -86 l 111 15 l 199 47 l 183 83 l 78 65 l 33 11 l 33 -82 l 78 -136 l 183 -154 l 199 -118 l 111 -86 z "},"˜":{"ha":568,"x_min":0,"x_max":499,"o":"m 344 1092 l 401 1140 l 499 1106 l 426 964 l 331 908 l 154 968 l 97 918 l 0 953 l 72 1094 l 168 1151 l 344 1092 l 344 1092 l 344 1092 m 90 957 l 147 1006 l 326 944 l 400 989 l 451 1088 l 408 1103 l 351 1053 l 172 1115 l 99 1071 l 47 972 l 90 957 l 90 957 l 90 957 z "},"˝":{"ha":718,"x_min":0,"x_max":649,"o":"m 101 776 l 101 776 l 0 804 l 0 843 l 161 1035 l 379 975 l 429 1035 l 649 975 l 649 929 l 369 776 l 268 804 l 268 843 l 306 889 l 101 776 m 615 949 l 442 996 l 301 831 l 365 813 l 365 813 l 615 949 m 347 949 l 174 996 l 33 831 l 97 813 l 97 813 l 347 949 z "},"π":{"ha":582,"x_min":0,"x_max":513,"o":"m 450 0 l 299 0 l 299 353 l 264 353 l 154 0 l 0 0 l 108 353 l 13 353 l 13 499 l 513 499 l 513 353 l 450 353 l 450 353 l 450 0 m 46 388 l 46 388 l 154 388 l 46 33 l 129 33 l 239 388 l 332 388 l 332 33 l 417 33 l 417 388 l 479 388 l 479 464 l 46 464 l 46 388 z "},"–":{"ha":753,"x_min":0,"x_max":683,"o":"m 683 518 l 683 333 l 0 333 l 0 518 l 0 518 l 683 518 m 33 485 l 33 485 l 33 367 l 650 367 l 650 485 l 33 485 z "},"—":{"ha":961,"x_min":0,"x_max":892,"o":"m 892 518 l 892 333 l 0 333 l 0 518 l 0 518 l 892 518 m 33 485 l 33 485 l 33 367 l 858 367 l 858 485 l 33 485 z "},"‘":{"ha":306,"x_min":0,"x_max":236,"o":"m 176 960 l 236 899 l 236 786 l 175 725 l 63 725 l 0 786 l 0 943 l 113 1039 l 201 1039 l 201 994 l 176 960 m 76 758 l 161 758 l 203 800 l 203 885 l 161 926 l 111 926 l 167 1006 l 125 1006 l 33 926 l 33 800 l 76 758 z "},"’":{"ha":306,"x_min":0,"x_max":236,"o":"m 60 725 l 0 786 l 0 899 l 61 960 l 174 960 l 236 899 l 236 742 l 124 646 l 35 646 l 35 690 l 60 725 m 160 926 l 75 926 l 33 885 l 33 800 l 75 758 l 125 758 l 69 679 l 111 679 l 203 758 l 203 885 l 160 926 z "},"‚":{"ha":306,"x_min":0,"x_max":236,"o":"m 60 1 l 0 61 l 0 174 l 61 235 l 174 235 l 236 174 l 236 18 l 124 -78 l 35 -78 l 35 -33 l 60 1 l 60 1 l 60 1 m 160 201 l 75 201 l 33 160 l 33 75 l 75 33 l 125 33 l 69 -44 l 111 -44 l 203 33 l 203 160 l 160 201 l 160 201 l 160 201 z "},"“":{"ha":510,"x_min":0,"x_max":440,"o":"m 176 960 l 204 931 l 204 943 l 317 1039 l 406 1039 l 406 994 l 381 960 l 440 899 l 440 786 l 379 725 l 267 725 l 221 771 l 175 725 l 63 725 l 0 786 l 0 943 l 113 1039 l 201 1039 l 201 994 l 176 960 m 281 758 l 365 758 l 407 800 l 407 885 l 365 926 l 315 926 l 371 1006 l 329 1006 l 238 926 l 238 800 l 281 758 m 76 758 l 161 758 l 203 800 l 203 885 l 161 926 l 113 926 l 168 1006 l 125 1006 l 35 926 l 35 800 l 76 758 z "},"”":{"ha":510,"x_min":0,"x_max":440,"o":"m 264 725 l 236 754 l 236 742 l 124 646 l 35 646 l 35 690 l 60 725 l 0 786 l 0 899 l 61 960 l 174 960 l 219 914 l 265 960 l 378 960 l 440 899 l 440 742 l 328 646 l 239 646 l 239 690 l 264 725 m 160 926 l 75 926 l 33 885 l 33 800 l 75 758 l 125 758 l 69 679 l 111 679 l 203 758 l 203 885 l 160 926 m 364 926 l 279 926 l 238 885 l 238 800 l 279 758 l 328 758 l 272 679 l 315 679 l 406 758 l 406 885 l 364 926 z "},"„":{"ha":510,"x_min":0,"x_max":440,"o":"m 264 0 l 236 29 l 236 17 l 124 -79 l 35 -79 l 35 -35 l 60 0 l 0 61 l 0 174 l 61 235 l 174 235 l 219 189 l 265 235 l 378 235 l 440 174 l 440 17 l 328 -79 l 239 -79 l 239 -35 l 264 0 m 160 201 l 75 201 l 33 160 l 33 75 l 75 33 l 125 33 l 69 -46 l 111 -46 l 203 33 l 203 160 l 160 201 m 364 201 l 279 201 l 238 160 l 238 75 l 279 33 l 328 33 l 272 -46 l 315 -46 l 406 33 l 406 160 l 364 201 z "},"†":{"ha":507,"x_min":0,"x_max":438,"o":"m 438 706 l 438 554 l 294 554 l 294 -133 l 143 -133 l 143 554 l 0 554 l 0 706 l 143 706 l 143 985 l 294 985 l 294 706 l 294 706 l 438 706 m 176 951 l 176 951 l 176 672 l 33 672 l 33 588 l 176 588 l 176 -100 l 261 -100 l 261 588 l 404 588 l 404 672 l 261 672 l 261 951 l 176 951 z "},"‡":{"ha":507,"x_min":0,"x_max":438,"o":"m 438 706 l 438 554 l 294 554 l 294 297 l 438 297 l 438 146 l 294 146 l 294 -133 l 143 -133 l 143 146 l 0 146 l 0 297 l 143 297 l 143 554 l 0 554 l 0 706 l 143 706 l 143 985 l 294 985 l 294 706 l 294 706 l 438 706 m 176 951 l 176 951 l 176 672 l 33 672 l 33 588 l 176 588 l 176 264 l 33 264 l 33 179 l 176 179 l 176 -100 l 261 -100 l 261 179 l 404 179 l 404 264 l 261 264 l 261 588 l 404 588 l 404 672 l 261 672 l 261 951 l 176 951 z "},"•":{"ha":407,"x_min":0,"x_max":338,"o":"m 250 594 l 338 507 l 338 344 l 250 257 l 88 257 l 0 344 l 0 507 l 88 594 l 250 594 l 250 594 l 250 594 m 236 560 l 101 560 l 33 493 l 33 358 l 101 292 l 236 292 l 303 358 l 303 493 l 236 560 l 236 560 l 236 560 z "},"…":{"ha":844,"x_min":0,"x_max":775,"o":"m 174 235 l 236 174 l 236 61 l 174 0 l 61 0 l 0 61 l 0 174 l 61 235 l 174 235 l 174 235 l 174 235 m 713 235 l 775 174 l 775 61 l 713 0 l 601 0 l 539 61 l 539 174 l 601 235 l 713 235 l 713 235 l 713 235 m 699 201 l 615 201 l 572 160 l 572 75 l 615 33 l 699 33 l 742 75 l 742 160 l 699 201 l 699 201 l 699 201 m 443 235 l 506 174 l 506 61 l 443 0 l 331 0 l 269 61 l 269 174 l 331 235 l 443 235 l 443 235 l 443 235 m 429 201 l 344 201 l 303 160 l 303 75 l 344 33 l 429 33 l 472 75 l 472 160 l 429 201 l 429 201 l 429 201 m 160 201 l 75 201 l 33 160 l 33 75 l 75 33 l 160 33 l 203 75 l 203 160 l 160 201 l 160 201 l 160 201 z "},"‰":{"ha":1169,"x_min":0,"x_max":1100,"o":"m 235 447 l 94 447 l 0 519 l 0 844 l 94 918 l 235 918 l 329 844 l 329 557 l 432 918 l 567 918 l 421 408 l 503 471 l 642 471 l 738 397 l 738 74 l 642 0 l 503 0 l 407 74 l 407 361 l 304 0 l 171 0 l 315 510 l 315 510 l 235 447 m 865 471 l 1006 471 l 1100 397 l 1100 74 l 1006 0 l 865 0 l 771 74 l 771 397 l 771 397 l 865 471 m 885 97 l 885 97 l 885 374 l 986 374 l 986 97 l 885 97 m 804 381 l 804 381 l 804 90 l 876 33 l 993 33 l 1067 90 l 1067 381 l 993 438 l 876 438 l 804 381 m 953 131 l 953 340 l 918 340 l 918 131 l 918 131 l 953 131 m 457 885 l 457 885 l 215 33 l 279 33 l 521 885 l 457 885 m 114 544 l 114 544 l 114 821 l 215 821 l 215 544 l 114 544 m 521 97 l 521 97 l 521 374 l 624 374 l 624 97 l 521 97 m 442 381 l 442 381 l 442 90 l 514 33 l 631 33 l 703 90 l 703 381 l 631 438 l 514 438 l 442 381 m 33 828 l 33 828 l 33 536 l 107 481 l 224 481 l 296 536 l 296 828 l 224 885 l 107 885 l 33 828 m 590 131 l 590 340 l 554 340 l 554 131 l 554 131 l 590 131 m 182 578 l 182 788 l 147 788 l 147 578 l 147 578 l 182 578 z "},"‹":{"ha":417,"x_min":0,"x_max":347,"o":"m 347 239 l 203 118 l 0 425 l 203 733 l 347 613 l 189 425 l 189 425 l 347 239 m 40 425 l 40 425 l 210 168 l 300 243 l 146 425 l 300 608 l 210 683 l 40 425 z "},"›":{"ha":417,"x_min":0,"x_max":347,"o":"m 158 425 l 158 425 l 0 613 l 144 733 l 347 425 l 144 118 l 0 239 l 158 425 m 138 683 l 47 608 l 201 425 l 47 243 l 138 168 l 307 425 l 307 425 l 138 683 z "},"⁄":{"ha":485,"x_min":0,"x_max":415,"o":"m 415 918 l 154 0 l 0 0 l 261 918 l 415 918 m 44 33 l 129 33 l 371 885 l 286 885 l 44 33 z "},"€":{"ha":729,"x_min":0,"x_max":660,"o":"m 303 200 l 660 200 l 601 0 l 243 0 l 67 135 l 67 292 l 0 292 l 0 444 l 67 444 l 67 474 l 0 474 l 0 625 l 67 625 l 67 782 l 243 918 l 603 918 l 653 717 l 303 717 l 303 625 l 582 625 l 582 474 l 303 474 l 303 444 l 582 444 l 582 292 l 303 292 l 303 200 l 303 200 l 303 200 m 269 167 l 269 326 l 549 326 l 549 410 l 269 410 l 269 508 l 549 508 l 549 592 l 269 592 l 269 751 l 610 751 l 576 885 l 254 885 l 101 765 l 101 592 l 33 592 l 33 508 l 101 508 l 101 410 l 33 410 l 33 326 l 101 326 l 101 151 l 254 33 l 576 33 l 614 167 l 269 167 l 269 167 l 269 167 z "},"™":{"ha":715,"x_min":0,"x_max":646,"o":"m 460 911 l 511 1033 l 646 1033 l 646 631 l 506 631 l 506 674 l 493 644 l 425 644 l 414 674 l 414 631 l 274 631 l 274 910 l 236 910 l 236 629 l 97 629 l 97 910 l 0 910 l 31 1033 l 408 1033 l 408 1033 l 460 911 m 274 1000 l 57 1000 l 43 943 l 131 943 l 131 664 l 203 664 l 203 943 l 288 943 l 288 943 l 274 1000 m 379 664 l 379 664 l 379 842 l 449 678 l 471 678 l 540 842 l 540 664 l 613 664 l 613 1000 l 533 1000 l 460 824 l 386 1000 l 307 1000 l 307 664 l 379 664 z "},"Ω":{"ha":1006,"x_min":0,"x_max":936,"o":"m 936 144 l 894 0 l 515 0 l 515 128 l 647 229 l 647 615 l 538 700 l 399 700 l 289 615 l 289 229 l 421 128 l 421 0 l 42 0 l 0 144 l 135 144 l 118 158 l 118 693 l 322 851 l 614 851 l 819 693 l 819 158 l 801 144 l 801 144 l 936 144 m 603 818 l 603 818 l 335 818 l 151 676 l 151 175 l 233 111 l 44 111 l 67 33 l 388 33 l 388 111 l 256 213 l 256 632 l 388 733 l 549 733 l 681 632 l 681 213 l 549 111 l 549 33 l 869 33 l 892 111 l 703 111 l 785 175 l 785 676 l 603 818 z "},"∂":{"ha":742,"x_min":0,"x_max":672,"o":"m 411 613 l 431 717 l 106 717 l 192 918 l 515 918 l 672 778 l 556 132 l 361 0 l 156 0 l 0 139 l 61 479 l 256 613 l 411 613 l 411 613 l 411 613 m 365 167 l 194 167 l 244 444 l 415 444 l 365 167 l 365 167 l 365 167 m 635 765 l 503 885 l 214 885 l 156 751 l 471 751 l 440 578 l 267 578 l 92 460 l 36 151 l 168 33 l 350 33 l 525 151 l 635 765 l 635 765 l 635 765 m 338 200 l 375 411 l 272 411 l 235 200 l 338 200 l 338 200 l 338 200 z "},"∆":{"ha":839,"x_min":0,"x_max":769,"o":"m 769 0 l 0 0 l 385 976 l 385 976 l 769 0 m 385 885 l 385 885 l 50 33 l 721 33 l 385 885 m 603 118 l 603 118 l 167 118 l 385 671 l 603 118 m 385 579 l 217 151 l 554 151 l 554 151 l 385 579 z "},"∏":{"ha":547,"x_min":0,"x_max":478,"o":"m 151 767 l 151 -133 l 0 -133 l 0 918 l 478 918 l 478 -133 l 326 -133 l 326 767 l 326 767 l 151 767 m 444 885 l 444 885 l 33 885 l 33 -100 l 118 -100 l 118 800 l 360 800 l 360 -100 l 444 -100 l 444 885 z "},"∑":{"ha":758,"x_min":0,"x_max":689,"o":"m 0 851 l 646 851 l 689 700 l 342 700 l 596 425 l 342 151 l 689 151 l 646 0 l 0 0 l 393 425 l 393 425 l 0 851 m 439 425 l 439 425 l 76 33 l 621 33 l 644 118 l 265 118 l 550 425 l 265 733 l 644 733 l 621 818 l 76 818 l 439 425 z "},"−":{"ha":547,"x_min":0,"x_max":478,"o":"m 478 518 l 478 333 l 0 333 l 0 518 l 478 518 m 33 367 l 444 367 l 444 485 l 33 485 l 33 367 z "},"√":{"ha":624,"x_min":0,"x_max":554,"o":"m 400 918 l 554 918 l 282 0 l 147 0 l 0 499 l 154 499 l 215 293 l 215 293 l 400 918 m 425 885 l 425 885 l 215 175 l 129 464 l 44 464 l 172 33 l 257 33 l 510 885 l 425 885 z "},"∞":{"ha":978,"x_min":0,"x_max":908,"o":"m 558 678 l 575 678 l 760 678 l 778 678 l 908 501 l 908 350 l 778 174 l 760 174 l 575 174 l 558 174 l 454 314 l 350 174 l 333 174 l 149 174 l 132 174 l 0 350 l 0 501 l 132 678 l 149 678 l 333 678 l 350 678 l 454 538 l 558 678 m 33 361 l 149 207 l 333 207 l 454 369 l 575 207 l 760 207 l 875 361 l 875 490 l 760 644 l 575 644 l 454 481 l 333 644 l 149 644 l 33 490 l 33 361 m 792 483 l 792 368 l 714 274 l 608 274 l 496 425 l 608 578 l 714 578 l 792 483 m 300 578 l 413 425 l 300 274 l 194 274 l 117 368 l 117 483 l 194 578 l 300 578 m 625 544 l 538 425 l 625 307 l 699 307 l 758 381 l 758 471 l 699 544 l 625 544 m 150 471 l 150 381 l 211 307 l 283 307 l 371 425 l 283 544 l 211 544 l 150 471 z "},"∫":{"ha":475,"x_min":0,"x_max":406,"o":"m 282 760 l 282 -46 l 161 -133 l 0 -133 l 0 11 l 104 11 l 124 25 l 124 829 l 246 918 l 406 918 l 406 774 l 301 774 l 301 774 l 282 760 m 372 885 l 372 885 l 257 885 l 157 813 l 157 8 l 115 -22 l 33 -22 l 33 -100 l 150 -100 l 249 -28 l 249 776 l 290 807 l 372 807 l 372 885 z "},"≈":{"ha":606,"x_min":0,"x_max":536,"o":"m 372 379 l 435 429 l 536 396 l 457 253 l 354 197 l 164 257 l 101 208 l 0 242 l 79 385 l 181 440 l 372 379 l 372 379 l 372 379 m 94 246 l 157 294 l 351 233 l 432 278 l 486 376 l 440 392 l 379 342 l 185 404 l 104 360 l 49 261 l 94 246 l 94 246 l 94 246 m 94 460 l 157 508 l 351 447 l 432 492 l 486 590 l 440 606 l 379 557 l 185 618 l 104 574 l 49 475 l 94 460 l 94 460 l 94 460 m 372 594 l 435 643 l 536 610 l 457 467 l 354 411 l 164 471 l 101 422 l 0 456 l 79 599 l 181 654 l 372 594 l 372 594 l 372 594 z "},"≠":{"ha":656,"x_min":0,"x_max":586,"o":"m 222 485 l 0 485 l 0 663 l 274 663 l 346 918 l 500 918 l 428 663 l 586 663 l 586 485 l 376 485 l 363 433 l 586 433 l 586 256 l 313 256 l 239 0 l 85 0 l 158 256 l 0 256 l 0 433 l 208 433 l 208 433 l 222 485 m 33 400 l 33 400 l 33 289 l 203 289 l 129 33 l 214 33 l 286 289 l 551 289 l 551 400 l 318 400 l 351 518 l 551 518 l 551 629 l 383 629 l 456 885 l 372 885 l 299 629 l 33 629 l 33 518 l 268 518 l 233 400 l 33 400 z "},"≤":{"ha":536,"x_min":0,"x_max":467,"o":"m 467 396 l 403 218 l 0 381 l 0 525 l 403 686 l 467 508 l 264 453 l 264 453 l 467 396 m 33 501 l 33 501 l 33 403 l 383 263 l 424 374 l 139 453 l 424 532 l 383 642 l 33 501 m 33 151 l 33 151 l 33 33 l 424 33 l 424 151 l 33 151 m 457 185 l 457 0 l 0 0 l 0 185 l 0 185 l 457 185 z "},"≥":{"ha":536,"x_min":0,"x_max":467,"o":"m 203 453 l 203 453 l 0 508 l 64 686 l 467 525 l 467 381 l 64 218 l 0 396 l 203 453 m 83 642 l 43 532 l 328 453 l 43 374 l 83 263 l 433 403 l 433 501 l 433 501 l 83 642 m 43 151 l 43 33 l 433 33 l 433 151 l 433 151 l 43 151 m 467 185 l 467 185 l 467 0 l 10 0 l 10 185 l 467 185 z "},"◊":{"ha":682,"x_min":0,"x_max":613,"o":"m 613 458 l 306 -31 l 0 458 l 306 947 l 306 947 l 613 458 m 306 885 l 306 885 l 40 458 l 306 33 l 572 458 l 306 885 m 306 750 l 306 750 l 489 458 l 306 168 l 124 458 l 306 750 m 164 458 l 306 232 l 449 458 l 306 686 l 306 686 l 164 458 z "},"":{"ha":733,"x_min":0,"x_max":650,"o":"m 7 504 l 7 782 l 182 918 l 508 918 l 558 717 l 243 717 l 243 564 l 364 564 l 364 631 l 600 631 l 600 564 l 650 564 l 650 363 l 600 363 l 600 128 l 424 0 l 175 0 l 0 135 l 0 429 l 57 469 l 57 469 l 7 504 m 188 33 l 188 33 l 413 33 l 567 144 l 567 397 l 617 397 l 617 531 l 567 531 l 567 597 l 397 597 l 397 531 l 208 531 l 208 751 l 515 751 l 482 885 l 194 885 l 40 765 l 40 522 l 115 469 l 33 411 l 33 151 l 188 33 m 397 397 l 397 397 l 397 167 l 203 167 l 203 397 l 397 397 m 236 363 l 236 200 l 364 200 l 364 363 l 364 363 l 236 363 z "},"":{"ha":797,"x_min":0,"x_max":728,"o":"m 33 918 l 585 918 l 635 717 l 375 717 l 728 0 l 485 0 l 467 35 l 422 0 l 175 0 l 0 135 l 0 464 l 189 601 l 189 601 l 33 918 m 33 446 l 33 446 l 33 151 l 188 33 l 411 33 l 479 86 l 506 33 l 674 33 l 322 751 l 592 751 l 558 885 l 88 885 l 232 590 l 33 446 m 203 167 l 203 167 l 203 393 l 294 461 l 439 167 l 203 167 m 386 200 l 282 411 l 236 376 l 236 200 l 236 200 l 386 200 z "},"":{"ha":626,"x_min":0,"x_max":557,"o":"m 243 629 l 403 629 l 403 428 l 236 428 l 236 215 l 256 200 l 557 200 l 499 0 l 410 0 l 410 -87 l 258 -87 l 258 0 l 175 0 l 0 135 l 0 494 l 57 535 l 7 569 l 7 782 l 182 918 l 258 918 l 258 1004 l 410 1004 l 410 918 l 507 918 l 557 717 l 243 717 l 243 717 l 243 629 m 208 751 l 208 751 l 514 751 l 481 885 l 376 885 l 376 971 l 292 971 l 292 885 l 194 885 l 40 765 l 40 586 l 115 535 l 33 476 l 33 151 l 188 33 l 292 33 l 292 -53 l 376 -53 l 376 33 l 474 33 l 513 167 l 244 167 l 203 197 l 203 461 l 369 461 l 369 594 l 208 594 l 208 751 z "},"":{"ha":701,"x_min":0,"x_max":618,"o":"m 618 492 l 618 135 l 443 0 l 0 0 l 0 918 l 436 918 l 613 782 l 613 567 l 563 531 l 563 531 l 618 492 m 33 33 l 432 33 l 585 151 l 585 474 l 504 531 l 578 583 l 578 765 l 425 885 l 33 885 l 33 885 l 33 33 m 203 167 l 203 458 l 417 458 l 417 167 l 417 167 l 203 167 m 203 592 l 203 751 l 410 751 l 410 592 l 410 592 l 203 592 m 383 425 l 236 425 l 236 200 l 383 200 l 383 200 l 383 425 m 376 717 l 236 717 l 236 625 l 376 625 l 376 625 l 376 717 z "},"":{"ha":632,"x_min":0,"x_max":563,"o":"m 236 619 l 435 619 l 435 425 l 236 425 l 236 200 l 563 200 l 504 0 l 0 0 l 0 918 l 508 918 l 560 717 l 236 717 l 236 717 l 236 619 m 33 33 l 33 33 l 479 33 l 517 167 l 203 167 l 203 458 l 401 458 l 401 585 l 203 585 l 203 751 l 515 751 l 482 885 l 33 885 l 33 33 z "},"":{"ha":632,"x_min":0,"x_max":563,"o":"m 236 619 l 435 619 l 435 425 l 236 425 l 236 0 l 0 0 l 0 918 l 511 918 l 563 717 l 236 717 l 236 717 l 236 619 m 33 885 l 33 885 l 33 33 l 203 33 l 203 458 l 401 458 l 401 585 l 203 585 l 203 751 l 518 751 l 485 885 l 33 885 z "},"":{"ha":750,"x_min":0,"x_max":667,"o":"m 236 425 l 236 0 l 0 0 l 0 918 l 236 918 l 236 619 l 431 619 l 431 918 l 667 918 l 667 0 l 431 0 l 431 425 l 431 425 l 236 425 m 633 33 l 633 33 l 633 885 l 464 885 l 464 585 l 203 585 l 203 885 l 33 885 l 33 33 l 203 33 l 203 458 l 464 458 l 464 33 l 633 33 z "},"":{"ha":701,"x_min":0,"x_max":618,"o":"m 236 0 l 0 0 l 0 918 l 443 918 l 618 782 l 618 488 l 443 351 l 236 351 l 236 351 l 236 0 m 203 33 l 203 33 l 203 385 l 432 385 l 585 504 l 585 765 l 432 885 l 33 885 l 33 33 l 203 33 m 417 751 l 417 751 l 417 518 l 203 518 l 203 751 l 417 751 m 236 717 l 236 553 l 383 553 l 383 717 l 383 717 l 236 717 z "},"":{"ha":697,"x_min":0,"x_max":628,"o":"m 628 0 l 388 0 l 244 351 l 236 351 l 236 0 l 0 0 l 0 918 l 436 918 l 613 782 l 613 488 l 474 381 l 474 381 l 628 0 m 203 33 l 203 33 l 203 385 l 268 385 l 410 33 l 578 33 l 433 392 l 578 504 l 578 765 l 425 885 l 33 885 l 33 33 l 203 33 m 410 751 l 410 751 l 410 518 l 203 518 l 203 751 l 410 751 m 236 717 l 236 553 l 376 553 l 376 717 l 376 717 l 236 717 z "},"":{"ha":682,"x_min":0,"x_max":599,"o":"m 236 619 l 422 619 l 599 483 l 599 135 l 422 0 l 58 0 l 0 200 l 363 200 l 363 418 l 175 418 l 0 554 l 0 782 l 175 918 l 515 918 l 565 717 l 236 717 l 236 717 l 236 619 m 489 885 l 489 885 l 188 885 l 33 765 l 33 571 l 188 451 l 396 451 l 396 167 l 44 167 l 83 33 l 411 33 l 565 151 l 565 467 l 411 585 l 203 585 l 203 751 l 522 751 l 489 885 z "},"":{"ha":788,"x_min":-14,"x_max":718,"o":"m 282 244 l 224 0 l -14 0 l 190 851 l 514 851 l 718 0 l 481 0 l 422 244 l 422 244 l 282 244 m 197 33 l 197 33 l 256 279 l 449 279 l 507 33 l 676 33 l 488 818 l 217 818 l 29 33 l 197 33 m 418 406 l 418 406 l 286 406 l 353 682 l 418 406 m 353 538 l 329 439 l 376 439 l 376 439 l 353 538 z "},"":{"ha":661,"x_min":0,"x_max":578,"o":"m 522 499 l 578 458 l 578 135 l 403 0 l 0 0 l 0 851 l 396 851 l 572 715 l 572 533 l 522 499 l 522 499 l 522 499 m 33 818 l 33 33 l 392 33 l 544 151 l 544 440 l 464 499 l 538 551 l 538 700 l 385 818 l 33 818 l 33 818 l 33 818 m 376 167 l 203 167 l 203 425 l 376 425 l 376 167 l 376 167 l 376 167 m 369 560 l 203 560 l 203 685 l 369 685 l 369 560 l 369 560 l 369 560 m 343 200 l 343 392 l 236 392 l 236 200 l 343 200 l 343 200 l 343 200 m 336 593 l 336 650 l 236 650 l 236 593 l 336 593 l 336 593 l 336 593 z "},"":{"ha":604,"x_min":0,"x_max":535,"o":"m 236 586 l 407 586 l 407 392 l 236 392 l 236 200 l 535 200 l 476 0 l 0 0 l 0 851 l 482 851 l 532 650 l 236 650 l 236 650 l 236 586 m 33 33 l 33 33 l 451 33 l 490 167 l 203 167 l 203 425 l 374 425 l 374 553 l 203 553 l 203 685 l 489 685 l 456 818 l 33 818 l 33 33 z "},"":{"ha":597,"x_min":0,"x_max":528,"o":"m 236 586 l 401 586 l 401 392 l 236 392 l 236 0 l 0 0 l 0 851 l 478 851 l 528 650 l 236 650 l 236 650 l 236 586 m 33 818 l 33 818 l 33 33 l 203 33 l 203 425 l 367 425 l 367 553 l 203 553 l 203 685 l 485 685 l 451 818 l 33 818 z "},"":{"ha":668,"x_min":0,"x_max":585,"o":"m 236 200 l 349 200 l 349 586 l 585 586 l 585 128 l 408 0 l 175 0 l 0 135 l 0 715 l 175 851 l 501 851 l 551 650 l 236 650 l 236 650 l 236 200 m 383 553 l 383 553 l 383 167 l 203 167 l 203 685 l 508 685 l 475 818 l 188 818 l 33 700 l 33 151 l 188 33 l 399 33 l 551 144 l 551 553 l 383 553 z "},"":{"ha":710,"x_min":0,"x_max":626,"o":"m 390 586 l 390 851 l 626 851 l 626 0 l 390 0 l 390 392 l 236 392 l 236 0 l 0 0 l 0 851 l 236 851 l 236 586 l 236 586 l 390 586 m 203 33 l 203 33 l 203 425 l 424 425 l 424 33 l 593 33 l 593 818 l 424 818 l 424 553 l 203 553 l 203 818 l 33 818 l 33 33 l 203 33 z "},"":{"ha":688,"x_min":0,"x_max":618,"o":"m 372 851 l 618 851 l 418 499 l 615 0 l 375 0 l 275 250 l 236 181 l 236 0 l 0 0 l 0 851 l 236 851 l 236 611 l 236 611 l 372 851 m 203 33 l 203 33 l 203 189 l 281 328 l 397 33 l 567 33 l 381 501 l 560 818 l 392 818 l 203 485 l 203 818 l 33 818 l 33 33 l 203 33 z "},"":{"ha":724,"x_min":0,"x_max":640,"o":"m 236 500 l 236 0 l 0 0 l 0 851 l 218 851 l 404 611 l 404 851 l 640 851 l 640 0 l 404 0 l 404 282 l 404 282 l 236 500 m 606 33 l 606 33 l 606 818 l 438 818 l 438 513 l 203 818 l 33 818 l 33 33 l 203 33 l 203 599 l 438 293 l 438 33 l 606 33 z "},"":{"ha":668,"x_min":0,"x_max":585,"o":"m 236 0 l 0 0 l 0 851 l 410 851 l 585 715 l 585 457 l 410 322 l 236 322 l 236 322 l 236 0 m 203 33 l 203 33 l 203 356 l 399 356 l 551 474 l 551 700 l 399 818 l 33 818 l 33 33 l 203 33 m 383 685 l 383 685 l 383 489 l 203 489 l 203 685 l 383 685 m 236 650 l 236 522 l 349 522 l 349 650 l 349 650 l 236 650 z "},"":{"ha":678,"x_min":0,"x_max":608,"o":"m 608 0 l 367 0 l 236 294 l 236 0 l 0 0 l 0 851 l 410 851 l 585 715 l 585 457 l 451 354 l 451 354 l 608 0 m 203 33 l 203 33 l 203 356 l 244 356 l 389 33 l 557 33 l 410 365 l 551 474 l 551 700 l 399 818 l 33 818 l 33 33 l 203 33 m 383 685 l 383 685 l 383 489 l 203 489 l 203 685 l 383 685 m 236 650 l 236 522 l 349 522 l 349 650 l 349 650 l 236 650 z "},"":{"ha":628,"x_min":0,"x_max":558,"o":"m 236 586 l 382 586 l 558 450 l 558 135 l 382 0 l 58 0 l 0 200 l 322 200 l 322 385 l 175 385 l 0 521 l 0 715 l 175 851 l 474 851 l 525 650 l 236 650 l 236 650 l 236 586 m 449 818 l 449 818 l 188 818 l 33 700 l 33 538 l 188 419 l 356 419 l 356 167 l 44 167 l 83 33 l 371 33 l 525 151 l 525 433 l 371 553 l 203 553 l 203 685 l 482 685 l 449 818 z "},"":{"ha":696,"x_min":0,"x_max":613,"o":"m 236 204 l 236 0 l 0 0 l 0 918 l 436 918 l 613 790 l 613 0 l 376 0 l 376 204 l 376 204 l 236 204 m 426 885 l 426 885 l 33 885 l 33 33 l 203 33 l 203 239 l 411 239 l 411 33 l 579 33 l 579 774 l 426 885 m 411 365 l 411 365 l 203 365 l 203 751 l 411 751 l 411 365 m 376 717 l 236 717 l 236 399 l 376 399 l 376 399 l 376 717 z "},"":{"ha":965,"x_min":0,"x_max":882,"o":"m 553 0 l 331 0 l 331 717 l 236 717 l 236 0 l 0 0 l 0 918 l 388 918 l 442 879 l 494 918 l 706 918 l 882 790 l 882 0 l 646 0 l 646 717 l 553 717 l 553 717 l 553 0 m 518 751 l 518 751 l 681 751 l 681 33 l 849 33 l 849 774 l 696 885 l 506 885 l 442 838 l 378 885 l 33 885 l 33 33 l 203 33 l 203 751 l 364 751 l 364 33 l 518 33 l 518 751 z "},"":{"ha":696,"x_min":0,"x_max":613,"o":"m 236 717 l 236 0 l 0 0 l 0 918 l 436 918 l 613 790 l 613 0 l 376 0 l 376 717 l 376 717 l 236 717 m 426 885 l 426 885 l 33 885 l 33 33 l 203 33 l 203 751 l 411 751 l 411 33 l 579 33 l 579 774 l 426 885 z "},"":{"ha":669,"x_min":0,"x_max":586,"o":"m 236 182 l 236 0 l 0 0 l 0 851 l 586 851 l 586 0 l 350 0 l 350 182 l 350 182 l 236 182 m 203 33 l 203 33 l 203 215 l 383 215 l 383 33 l 553 33 l 553 818 l 33 818 l 33 33 l 203 33 m 203 342 l 203 342 l 203 685 l 383 685 l 383 342 l 203 342 m 350 376 l 350 650 l 236 650 l 236 376 l 236 376 l 350 376 z "},"":{"ha":915,"x_min":0,"x_max":832,"o":"m 236 650 l 236 0 l 0 0 l 0 851 l 832 851 l 832 0 l 596 0 l 596 650 l 526 650 l 526 0 l 304 0 l 304 650 l 304 650 l 236 650 m 493 33 l 493 33 l 493 685 l 629 685 l 629 33 l 797 33 l 797 818 l 33 818 l 33 33 l 203 33 l 203 685 l 338 685 l 338 33 l 493 33 z "},"":{"ha":676,"x_min":0,"x_max":593,"o":"m 236 650 l 236 0 l 0 0 l 0 851 l 593 851 l 593 0 l 357 0 l 357 650 l 357 650 l 236 650 m 203 33 l 203 33 l 203 685 l 390 685 l 390 33 l 560 33 l 560 818 l 33 818 l 33 33 l 203 33 z "},"":{"ha":696,"x_min":0,"x_max":613,"o":"m 0 851 l 613 851 l 613 0 l 0 0 l 0 0 l 0 851 m 33 33 l 33 33 l 579 33 l 579 818 l 33 818 l 33 33 m 203 685 l 203 685 l 411 685 l 411 167 l 203 167 l 203 685 m 236 200 l 376 200 l 376 650 l 236 650 l 236 650 l 236 200 z "},"":{"ha":696,"x_min":0,"x_max":613,"o":"m 425 -100 l 189 -100 l 189 0 l 0 0 l 0 851 l 613 851 l 613 0 l 425 0 l 425 0 l 425 -100 m 33 33 l 33 33 l 222 33 l 222 -67 l 390 -67 l 390 33 l 579 33 l 579 818 l 33 818 l 33 33 m 203 685 l 203 685 l 411 685 l 411 167 l 203 167 l 203 685 m 236 200 l 376 200 l 376 650 l 236 650 l 236 650 l 236 200 z "},"":{"ha":676,"x_min":0,"x_max":593,"o":"m 236 200 l 357 200 l 357 851 l 593 851 l 593 0 l 0 0 l 0 851 l 236 851 l 236 200 l 236 200 l 236 200 m 203 818 l 33 818 l 33 33 l 560 33 l 560 818 l 390 818 l 390 167 l 203 167 l 203 818 l 203 818 l 203 818 z "},"":{"ha":915,"x_min":0,"x_max":832,"o":"m 526 200 l 596 200 l 596 851 l 832 851 l 832 0 l 0 0 l 0 851 l 236 851 l 236 200 l 304 200 l 304 851 l 526 851 l 526 200 l 526 200 l 526 200 m 493 818 l 338 818 l 338 167 l 203 167 l 203 818 l 33 818 l 33 33 l 797 33 l 797 818 l 629 818 l 629 167 l 493 167 l 493 818 l 493 818 l 493 818 z "},"":{"ha":689,"x_min":0,"x_max":606,"o":"m 236 182 l 236 0 l 0 0 l 0 724 l 176 851 l 429 851 l 606 724 l 606 0 l 369 0 l 369 182 l 369 182 l 236 182 m 418 818 l 418 818 l 188 818 l 33 707 l 33 33 l 203 33 l 203 215 l 403 215 l 403 33 l 572 33 l 572 707 l 418 818 m 403 342 l 403 342 l 203 342 l 203 685 l 403 685 l 403 342 m 369 650 l 236 650 l 236 376 l 369 376 l 369 376 l 369 650 z "},"":{"ha":553,"x_min":0,"x_max":469,"o":"m 458 200 l 458 0 l 0 0 l 0 200 l 0 200 l 458 200 m 33 167 l 33 167 l 33 33 l 425 33 l 425 167 l 33 167 m 203 685 l 425 685 l 392 818 l 188 818 l 33 700 l 33 386 l 188 268 l 386 268 l 425 401 l 203 401 l 203 401 l 203 685 m 469 435 l 411 235 l 175 235 l 0 369 l 0 715 l 175 851 l 418 851 l 468 650 l 236 650 l 236 435 l 236 435 l 469 435 z "},"":{"ha":628,"x_min":0,"x_max":544,"o":"m 544 200 l 544 0 l 0 0 l 0 200 l 0 200 l 544 200 m 188 401 l 188 401 l 188 685 l 357 685 l 357 401 l 188 401 m 33 167 l 33 167 l 33 33 l 511 33 l 511 167 l 33 167 m 511 379 l 511 379 l 511 707 l 357 818 l 188 818 l 33 707 l 33 379 l 188 268 l 357 268 l 511 379 m 368 235 l 176 235 l 0 363 l 0 724 l 176 851 l 368 851 l 544 724 l 544 363 l 544 363 l 368 235 m 324 435 l 324 650 l 221 650 l 221 435 l 221 435 l 324 435 z "},"":{"ha":710,"x_min":0,"x_max":626,"o":"m 203 167 l 203 167 l 203 685 l 424 685 l 424 167 l 203 167 m 593 144 l 593 144 l 593 707 l 439 818 l 188 818 l 33 707 l 33 144 l 186 35 l 135 7 l 93 -92 l 117 -100 l 165 -51 l 433 -137 l 514 -93 l 568 6 l 533 18 l 471 -31 l 269 33 l 439 33 l 593 144 m 618 25 l 539 -118 l 436 -174 l 175 -89 l 126 -139 l 49 -112 l 108 31 l 122 39 l 0 128 l 0 724 l 176 851 l 450 851 l 626 724 l 626 128 l 526 56 l 526 56 l 618 25 m 390 200 l 390 650 l 236 650 l 236 200 l 236 200 l 390 200 z "},"":{"ha":1004,"x_min":0,"x_max":921,"o":"m 349 200 l 349 851 l 572 851 l 572 200 l 685 200 l 685 851 l 921 851 l 921 128 l 744 0 l 518 0 l 461 47 l 403 0 l 176 0 l 0 128 l 0 851 l 236 851 l 236 200 l 236 200 l 349 200 m 461 90 l 529 33 l 733 33 l 888 144 l 888 818 l 718 818 l 718 167 l 538 167 l 538 818 l 383 818 l 383 167 l 203 167 l 203 818 l 33 818 l 33 144 l 188 33 l 392 33 l 392 33 l 461 90 z "},"":{"ha":788,"x_min":-14,"x_max":718,"o":"m 254 129 l 224 0 l -14 0 l 190 851 l 514 851 l 718 0 l 481 0 l 438 182 l 438 182 l 254 129 m 197 33 l 197 33 l 226 157 l 463 224 l 507 33 l 676 33 l 488 818 l 217 818 l 29 33 l 197 33 m 433 342 l 433 342 l 260 293 l 353 682 l 433 342 m 353 538 l 306 340 l 393 365 l 393 365 l 353 538 z "},"":{"ha":668,"x_min":0,"x_max":585,"o":"m 528 457 l 585 417 l 585 135 l 410 0 l 0 0 l 0 851 l 403 851 l 578 715 l 578 492 l 528 457 l 528 457 l 528 457 m 33 818 l 33 33 l 399 33 l 551 151 l 551 399 l 469 457 l 544 508 l 544 700 l 392 818 l 33 818 l 33 818 l 33 818 m 203 375 l 383 426 l 383 167 l 203 167 l 203 375 l 203 375 l 203 375 m 203 685 l 376 685 l 376 551 l 203 501 l 203 685 l 203 685 l 203 685 m 236 349 l 236 200 l 349 200 l 349 382 l 236 349 l 236 349 l 236 349 m 236 650 l 236 546 l 343 576 l 343 650 l 236 650 l 236 650 l 236 650 z "},"":{"ha":654,"x_min":0,"x_max":585,"o":"m 236 650 l 236 200 l 349 200 l 349 335 l 585 335 l 585 128 l 408 0 l 175 0 l 0 135 l 0 715 l 175 851 l 408 851 l 585 724 l 585 517 l 349 517 l 349 650 l 349 650 l 236 650 m 383 300 l 383 300 l 383 167 l 203 167 l 203 685 l 383 685 l 383 551 l 551 551 l 551 707 l 399 818 l 188 818 l 33 700 l 33 151 l 188 33 l 399 33 l 551 144 l 551 300 l 383 300 z "},"":{"ha":604,"x_min":0,"x_max":535,"o":"m 236 500 l 421 553 l 421 356 l 236 303 l 236 200 l 535 200 l 476 0 l 0 0 l 0 851 l 482 851 l 532 650 l 236 650 l 236 650 l 236 500 m 33 33 l 33 33 l 451 33 l 490 167 l 203 167 l 203 328 l 388 381 l 388 508 l 203 456 l 203 685 l 489 685 l 456 818 l 33 818 l 33 33 z "},"":{"ha":597,"x_min":0,"x_max":528,"o":"m 236 504 l 407 553 l 407 356 l 236 307 l 236 0 l 0 0 l 0 851 l 478 851 l 528 650 l 236 650 l 236 650 l 236 504 m 33 818 l 33 818 l 33 33 l 203 33 l 203 332 l 374 381 l 374 508 l 203 458 l 203 685 l 485 685 l 451 818 l 33 818 z "},"":{"ha":668,"x_min":0,"x_max":585,"o":"m 349 650 l 236 650 l 236 200 l 349 200 l 349 267 l 258 267 l 258 468 l 585 468 l 585 128 l 408 0 l 175 0 l 0 135 l 0 715 l 175 851 l 408 851 l 585 724 l 585 517 l 349 517 l 349 650 l 349 650 l 349 650 m 293 300 l 383 300 l 383 167 l 203 167 l 203 685 l 383 685 l 383 551 l 551 551 l 551 707 l 399 818 l 188 818 l 33 700 l 33 151 l 188 33 l 399 33 l 551 144 l 551 433 l 293 433 l 293 300 l 293 300 l 293 300 z "},"":{"ha":710,"x_min":0,"x_max":626,"o":"m 390 451 l 390 851 l 626 851 l 626 0 l 390 0 l 390 254 l 236 210 l 236 0 l 0 0 l 0 851 l 236 851 l 236 407 l 236 407 l 390 451 m 203 33 l 203 33 l 203 236 l 424 299 l 424 33 l 593 33 l 593 818 l 424 818 l 424 425 l 203 363 l 203 818 l 33 818 l 33 33 l 203 33 z "},"":{"ha":965,"x_min":0,"x_max":896,"o":"m 678 650 l 678 0 l 442 0 l 442 650 l 236 650 l 236 522 l 401 522 l 401 329 l 236 329 l 236 0 l 0 0 l 0 851 l 844 851 l 896 650 l 678 650 l 678 650 l 678 650 m 853 685 l 818 818 l 33 818 l 33 33 l 203 33 l 203 363 l 367 363 l 367 489 l 203 489 l 203 685 l 475 685 l 475 33 l 643 33 l 643 685 l 853 685 l 853 685 l 853 685 z "},"":{"ha":1092,"x_min":-14,"x_max":1022,"o":"m 811 650 l 811 0 l 575 0 l 575 650 l 440 650 l 440 0 l 204 0 l 204 650 l -14 650 l 36 851 l 972 851 l 1022 650 l 811 650 l 811 650 l 811 650 m 63 818 l 29 685 l 238 685 l 238 33 l 407 33 l 407 685 l 608 685 l 608 33 l 778 33 l 778 685 l 979 685 l 946 818 l 63 818 l 63 818 l 63 818 z "},"":{"ha":965,"x_min":0,"x_max":896,"o":"m 678 650 l 678 0 l 442 0 l 442 650 l 236 650 l 236 522 l 401 522 l 401 329 l 236 329 l 236 0 l 0 0 l 0 851 l 844 851 l 896 650 l 678 650 m 853 685 l 818 818 l 33 818 l 33 33 l 203 33 l 203 363 l 367 363 l 367 489 l 203 489 l 203 685 l 475 685 l 475 33 l 643 33 l 643 685 l 853 685 z "},"ﬀ":{"ha":1039,"x_min":0,"x_max":969,"o":"m 678 522 l 842 522 l 842 329 l 678 329 l 678 0 l 442 0 l 442 650 l 236 650 l 236 522 l 401 522 l 401 329 l 236 329 l 236 0 l 0 0 l 0 851 l 919 851 l 969 650 l 678 650 l 678 650 l 678 522 m 33 818 l 33 818 l 33 33 l 203 33 l 203 363 l 367 363 l 367 489 l 203 489 l 203 685 l 475 685 l 475 33 l 643 33 l 643 363 l 808 363 l 808 489 l 643 489 l 643 685 l 926 685 l 893 818 l 33 818 z "},"ﬁ":{"ha":761,"x_min":0,"x_max":678,"o":"m 236 650 l 236 522 l 401 522 l 401 329 l 236 329 l 236 0 l 0 0 l 0 851 l 678 851 l 678 0 l 442 0 l 442 650 l 442 650 l 236 650 m 33 818 l 33 818 l 33 33 l 203 33 l 203 363 l 367 363 l 367 489 l 203 489 l 203 685 l 475 685 l 475 33 l 643 33 l 643 818 l 33 818 z "},"ﬂ":{"ha":1040,"x_min":0,"x_max":971,"o":"m 236 650 l 236 522 l 401 522 l 401 329 l 236 329 l 236 0 l 0 0 l 0 851 l 678 851 l 678 200 l 971 200 l 913 0 l 442 0 l 442 650 l 442 650 l 236 650 m 475 33 l 475 33 l 888 33 l 925 167 l 643 167 l 643 818 l 33 818 l 33 33 l 203 33 l 203 363 l 367 363 l 367 489 l 203 489 l 203 685 l 475 685 l 475 33 z "},"ﬃ":{"ha":1201,"x_min":0,"x_max":1118,"o":"m 678 650 l 678 522 l 842 522 l 842 329 l 678 329 l 678 0 l 442 0 l 442 650 l 236 650 l 236 522 l 401 522 l 401 329 l 236 329 l 236 0 l 0 0 l 0 851 l 1118 851 l 1118 0 l 883 0 l 883 650 l 883 650 l 678 650 m 1085 818 l 1085 818 l 33 818 l 33 33 l 203 33 l 203 363 l 367 363 l 367 489 l 203 489 l 203 685 l 475 685 l 475 33 l 643 33 l 643 363 l 808 363 l 808 489 l 643 489 l 643 685 l 917 685 l 917 33 l 1085 33 l 1085 818 z "},"ﬄ":{"ha":1481,"x_min":0,"x_max":1411,"o":"m 1411 200 l 1354 0 l 883 0 l 883 650 l 678 650 l 678 522 l 842 522 l 842 329 l 678 329 l 678 0 l 442 0 l 442 650 l 236 650 l 236 522 l 401 522 l 401 329 l 236 329 l 236 0 l 0 0 l 0 851 l 1118 851 l 1118 200 l 1118 200 l 1411 200 m 33 818 l 33 818 l 33 33 l 203 33 l 203 363 l 367 363 l 367 489 l 203 489 l 203 685 l 475 685 l 475 33 l 643 33 l 643 363 l 808 363 l 808 489 l 643 489 l 643 685 l 917 685 l 917 33 l 1329 33 l 1367 167 l 1085 167 l 1085 818 l 33 818 z "},"#":{"ha":947,"x_min":0,"x_max":878,"o":"m 596 692 l 660 918 l 814 918 l 750 692 l 878 692 l 878 540 l 707 540 l 660 376 l 878 376 l 878 225 l 617 225 l 553 0 l 399 0 l 463 225 l 282 225 l 218 0 l 64 0 l 128 225 l 0 225 l 0 376 l 171 376 l 217 540 l 0 540 l 0 692 l 260 692 l 325 918 l 479 918 l 414 692 l 414 692 l 596 692 m 350 885 l 350 885 l 286 658 l 33 658 l 33 575 l 263 575 l 196 343 l 33 343 l 33 260 l 172 260 l 108 33 l 192 33 l 256 260 l 508 260 l 443 33 l 528 33 l 592 260 l 844 260 l 844 343 l 615 343 l 682 575 l 844 575 l 844 658 l 706 658 l 769 885 l 686 885 l 621 658 l 369 658 l 435 885 l 350 885 m 346 575 l 346 575 l 597 575 l 532 343 l 281 343 l 346 575 m 325 376 l 507 376 l 553 540 l 371 540 l 371 540 l 325 376 z "},"!":{"ha":328,"x_min":0,"x_max":258,"o":"m 247 174 l 247 61 l 185 0 l 72 0 l 11 61 l 11 174 l 69 232 l 33 232 l 0 918 l 258 918 l 224 232 l 189 232 l 189 232 l 247 174 m 65 265 l 65 265 l 192 265 l 222 885 l 35 885 l 65 265 m 171 201 l 171 201 l 86 201 l 44 160 l 44 75 l 86 33 l 171 33 l 214 75 l 214 160 l 171 201 z "},"\"":{"ha":510,"x_min":0,"x_max":440,"o":"m 264 725 l 236 754 l 236 742 l 124 646 l 35 646 l 35 690 l 60 725 l 0 786 l 0 899 l 61 960 l 174 960 l 219 914 l 265 960 l 378 960 l 440 899 l 440 742 l 328 646 l 239 646 l 239 690 l 264 725 l 264 725 l 264 725 m 160 926 l 75 926 l 33 885 l 33 800 l 75 758 l 125 758 l 69 679 l 111 679 l 203 758 l 203 885 l 160 926 l 160 926 l 160 926 m 364 926 l 279 926 l 238 885 l 238 800 l 279 758 l 328 758 l 272 679 l 315 679 l 406 758 l 406 885 l 364 926 l 364 926 l 364 926 z "}}}
